<?xml version="1.0" encoding="utf-8"?>
<!-- Generator: Adobe Illustrator 22.0.1, SVG Export Plug-In . SVG Version: 6.00 Build 0)  -->
<svg version="1.1" xmlns="http://www.w3.org/2000/svg" xmlns:xlink="http://www.w3.org/1999/xlink" x="0px" y="0px"
	 viewBox="0 0 2272 1872" style="enable-background:new 0 0 2272 1872;" xml:space="preserve">
<style type="text/css">
	.st0{fill:#3F506B;}
	.st1{fill:#4C6487;}
	.st2{fill:#3D5675;}
	.st3{fill:#FFDA9F;}
	.st4{fill:#FFD484;}
	.st5{fill:#F9A36F;}
	.st6{fill:#4DA8BB;}
	.st7{fill:#42959B;}
	.st8{fill:#6EDBEA;}
	.st9{fill:#E74C3C;}
	.st10{fill:#440136;}
	.st11{fill:#FFE100;}
	.st12{fill:#FFE75A;}
	.st13{fill:#F39C26;}
	.st14{fill:#E5AC53;}
	.st15{fill:#D19647;}
	.st16{fill:#997844;}
	.st17{fill:#596F9B;}
	.st18{fill:#FF777F;}
	.st19{fill:#F94B44;}
	.st20{fill:#2C3E50;}
	.st21{fill:#7BEFFF;}
	.st22{fill:#FFD6BB;}
	.st23{fill:#4A6A84;}
	.st24{fill:#FFFFFF;}
	.st25{fill:#6C8BBC;}
	.st26{fill:#FFE7C5;}
</style>
<g id="Background">
	<g id="Layer_1_1_">
	</g>
	<g id="Layer_2">
	</g>
	<g id="Layer_1_2_">
	</g>
	<g>
		<g>
			<g>
				<path class="st0" d="M0,0v1872h2272V0H0z"/>
			</g>
		</g>
	</g>
</g>
<g id="object">
	<path class="st1" d="M1890.8,1502.1c-11.9-17.4-30.9-28.4-49.5-38.4c-190.6-102.1-403.6-156.9-618-184.7
		c-346.4-45-692.8-21.4-1040.2-26.6c-11-0.2-22.5,0-34.1,0.8c-46.1,3.3-55,67-11.6,82.8c13.3,4.8,26.6,9.6,39.9,14.5
		c9.2,3.3,19.3,7.5,23.2,16.4c6.5,14.7-7.6,29.8-20.3,39.7c-0.2,0.2-0.4,0.3-0.6,0.5c-38.2,29.8-30.5,89.6,14,108.8
		c59,25.6,131.5,29.5,197.6,30c394.5,3.1,789.6-5.3,1183.3,21c105.7,7.1,213.1,16.5,316.5-6.1
		C1905.3,1545.2,1902.8,1519.5,1890.8,1502.1z"/>
	<g>
		<path class="st1" d="M295.9,1077.5c-28.1-37.1-65.9-63.5-97.3-97.2c-59.5-63.7-94.6-154.4-95.3-246
			c-0.5-60.1,17.3-126.2,64.1-156.8c56.4-36.9,127.2-8.5,190.4,10.7c80,24.3,171.8,30.3,240.2-21.7c43.8-33.3,72.2-86,112.9-123.9
			c52.9-49.3,123.1-70,191.9-77.9c53.5-6.1,112-3.6,154.4,33.1c42.5,36.9,60.1,101.1,103.4,136.9c39.6,32.8,93.2,35.3,142.4,29.5
			s98.5-18.5,147.6-11.5s99.6,40.3,110.6,93.6c5.6,26.9,0.5,55.2,3.3,82.7c7.6,74.3,69.4,126,129.2,160.9
			c59.8,34.9,126.7,65.8,162.4,129.3c8.4,14.8,14.9,32.3,12,49.5c-3.3,19.8-18,34.7-32.7,46.5c-67.4,53.9-151.8,75.4-234.7,83.2
			c-82.9,7.8-166.4,3.1-249.2,10.8c-84.1,7.7-168,28.1-252.2,21.3c-58.7-4.7-116.6-22.7-175.5-21.6c-97.8,1.7-188.3,55.1-283.6,79.3
			c-46.7,11.8-94.8,16.7-142.6,14.4c-52.3-2.5-110.3-16.6-148.8-58.7C308.6,1199.9,336.5,1131.2,295.9,1077.5z"/>
		<path class="st2" d="M1855.9,1019.2c-35.8-63.4-102.6-94.4-162.4-129.3c-54.9-32.1-111.6-78.4-126.3-143.3
			c-23.9,4.2-47.3,11-70,21.1c-55.3,24.8-100.3,67.4-148.6,104c-127.3,96.4-284,153.4-443.4,161.4c-141.4,7-284.3-23.4-424-0.6
			c-62.5,10.2-128.7,36.7-166.4,84.6c12.3,44.8,3.1,93.1,33.8,126.7c38.5,42.1,96.5,56.2,148.8,58.7c47.8,2.3,95.9-2.5,142.6-14.4
			c95.4-24.2,185.8-77.5,283.6-79.3c58.9-1,116.7,16.9,175.5,21.6c84.2,6.8,168-13.6,252.2-21.3c82.9-7.6,166.4-3,249.2-10.8
			c82.9-7.8,167.2-29.3,234.7-83.2c14.8-11.8,29.5-26.7,32.7-46.5C1870.8,1051.5,1864.3,1034.1,1855.9,1019.2z"/>
		<g>
			<path class="st3" d="M1554.5,1035.8c-38-19.1-81.6-33.2-106.1-68c-32.4-46.1-20.6-115-58.4-156.9c-49.7-55-156.4-32-195.2-95.1
				c-12.9-20.9-14.9-47.5-29.5-67.3c-14.3-19.5-38.6-29.1-62.3-33.8c-91.5-18.3-190,21.6-278-9.6c-90.3-32-148.8-132.5-243.4-147.4
				c-54.7-8.6-110,14.5-154.5,47.4c-74.1,54.8-126.2,138.5-142.6,229.2c-13.8,76.1-6,162.7-56.3,221.5
				c-20.1,23.5-48.2,40.3-63.2,67.4c-22.2,40.1-9.3,90.1,8.7,132.2c31.6,74.2,85.2,117.1,166.4,113.2
				c347.1-16.6,694.4-25.3,1041.9-25c85.8,0.1,171.5,0.7,257.3,2.5c43.2,0.9,89.9,1.1,124.6-24.6
				C1702.2,1150.6,1638.4,1077.9,1554.5,1035.8z"/>
			<path class="st4" d="M168.3,1035.6c1.4-2.6,3-5.1,4.7-7.6c26.7,4,53.4,8.3,78.9,0.8c46.5-13.7,78.9-64.1,127.3-66.7
				c57-3.1,113.1,62.4,162.2,33.3c12.7-7.5,21.7-20.4,34.7-27.2c37.4-19.7,79,18.8,99.8,55.6c20.8,36.8,44.9,82.1,87.2,83.9
				c44.8,1.8,79-49.1,123.7-46.7c14.4,0.8,28.7,7.2,42.8,4.2c42.6-9.1,33.9-84.7,74.3-101c21.3-8.5,45.3,4.6,68.1,1.5
				c26.3-3.6,47.3-28.2,73.8-27.6c42.9,1,58.6,62.9,99.3,76.6c41.7,14,82.1-29,126.1-29.1c34.2,0,62.2,25.4,93,40.2
				c23.6,11.3,50,15.7,76,13.9c6,2.8,11.9,5.6,17.7,8.5c80.3,40.3,142.2,108.6,201.3,176.5c1.5-1,3.1-2.1,4.6-3.2
				c-61.6-70.9-125.4-143.6-209.3-185.7c-38-19.1-81.6-33.2-106.1-68c-16-22.7-21.2-50.9-26.9-78.7c-20.6-10.9-41.7-20.5-64.7-23.9
				c-84.2-12.5-170.1,60.9-249.5,30.1c-56.1-21.7-90.9-91-151-93.2c-37.7-1.4-70.8,25.3-108.1,31.2c-53.9,8.4-103.5-27-149.1-56.9
				c-45.6-29.9-104.5-56.3-152.5-30.3c-9,4.9-17.1,11.4-26.4,15.6c-31.1,14-67.9-1-94.5-22.4c-26.5-21.4-47.9-49.3-76.9-67.1
				c-12.5-7.7-26.3-13-40.6-16.1c-10.8,25.1-18.8,51.3-23.7,78.2c-13.8,76.1-6,162.7-56.3,221.5c-20.1,23.5-48.2,40.3-63.2,67.4
				c-16.8,30.4-13.4,66.5-3,100.5C154.4,1093.5,153.5,1062.3,168.3,1035.6z"/>
			<path class="st5" d="M1553.9,1036.1c-5.8-2.9-11.7-5.7-17.7-8.5c-26,1.8-52.4-2.6-76-13.9c-30.8-14.8-58.9-40.2-93-40.2
				c-44,0-84.4,43.1-126.1,29.1c-40.7-13.7-56.4-75.5-99.3-76.6c-26.5-0.6-47.5,24-73.8,27.6c-22.7,3.1-46.8-10-68.1-1.5
				c-40.5,16.2-31.7,91.8-74.3,101c-14.1,3-28.4-3.4-42.8-4.2c-44.7-2.4-78.9,48.5-123.7,46.7c-42.3-1.7-66.4-47-87.2-83.9
				c-20.8-36.8-62.3-75.3-99.8-55.6c-13.1,6.9-22,19.7-34.7,27.2c-49.2,29-105.2-36.4-162.2-33.3c-48.4,2.6-80.8,53-127.3,66.7
				c-25.5,7.5-52.2,3.2-78.9-0.8c-1.7,2.4-3.2,4.9-4.7,7.6c-22.2,40.1-9.3,90.1,8.7,132.2c31.6,74.2,85.2,117.1,166.4,113.2
				c347.1-16.6,694.4-25.3,1041.9-25c85.8,0.1,171.5,0.7,257.3,2.5c43.2,0.9,89.9,1.1,124.6-24.6
				C1701.7,1150.9,1637.9,1078.2,1553.9,1036.1z"/>
			<g>
				<path class="st6" d="M1135.4,1203.6c4.8-24.8-7.6-49.2-14.6-73.5c-8.8-30.5-9.1-63.4-0.9-94.1c5-18.7,15.6-38.7,34.4-43.3
					c25.5-6.2,47.2,18.9,59.2,42.2c25.3,49.2,39.7,105.7,78.5,145.2c8,8.2,21.7,15.4,29.8,7.4c4.6-4.5,4.9-12.1,9.1-17
					c6.9-7.9,20.5-4.4,27.9,3c7.5,7.4,11.6,17.6,19,25.1c2.6,2.7,5.9,5.1,9.7,5.2c16.3,0.7,10.7-32.7,26.4-37.1
					c9.6,8.3,19.6,16,30,23.2c3.4,2.3,6.9,4.7,11,5c14.7,1.2,17.7-20.2,16.5-34.9c-2.5-30,1.9-61,16.1-87.5c4-7.5,11-15.5,19.3-13.5
					c4,1,7,4.2,9.8,7.2c39,43.5,71.3,93.1,95.1,146.4c2.2,4.8,4.2,10.7,1.4,15.2c-1.9,3.1-5.6,4.6-9.1,5.8
					c-40.3,13.6-83.4,16.2-125.9,18.5c-103.5,5.4-207,9.4-310.5,12.5c-24.8,0.7-80.1,7.6-89.1-25.2
					C1063.3,1184.2,1129.7,1233.5,1135.4,1203.6z"/>
				<path class="st7" d="M1336.9,1238.7c-4.5-17.8-8.9-35.5-13.4-53.3c-0.5,0.7-1,1.4-1.6,2c-8.1,8-21.8,0.8-29.8-7.4
					c-38.8-39.5-53.2-96-78.5-145.2c-11.8-22.9-33-47.5-57.9-42.4c-2.8,9.9-1.3,21.6,3.4,31.1c7.5,15.3,21,26.7,32.2,39.5
					c19.1,22,32,49.4,36.7,78.2c4.1,24.9,2.5,51.5,14,74c9.9,19.3,28,32.7,46,45.1c17-0.6,34.1-1.3,51.1-2
					C1339.9,1252.1,1338.5,1245.1,1336.9,1238.7z"/>
				<path class="st7" d="M1611.7,1212.5c-23.8-53.4-56-103-95.1-146.4c-2.8-3.1-5.8-6.3-9.8-7.2c-3-0.7-5.8-0.1-8.4,1.3
					c-5.9,48.4,11,99.7,46,134c10.3,10.1,22.2,19.1,29.2,31.7c2.5,4.5,4.1,9.6,4.7,14.8c8.6-2,17.2-4.3,25.6-7.2
					c3.5-1.2,7.2-2.6,9.1-5.8C1615.9,1223.2,1613.9,1217.4,1611.7,1212.5z"/>
				<path class="st7" d="M1444.4,1190.1c-0.1-0.1-0.3-0.2-0.4-0.3c-10.4-7.2-20.4-14.9-30-23.2c-4,1.1-6.6,4.1-8.5,7.9
					c3.6,26.7,7.2,53.4,10.7,80.1c-12-0.4-19.6-12.6-25.1-23.2c-8.4-16.4-16.7-32.7-25.1-49.1c-2.2-3.2-4.4-6.2-7.1-8.9
					c-7.5-7.4-21-10.9-27.9-3c-3.7,4.2-4.4,10.5-7.5,15.1c4.5,17.8,8.9,35.5,13.4,53.3c1.6,6.3,3,13.3,2.1,19.6
					c46.4-1.9,92.8-4,139.1-6.5c3.8-0.2,7.7-0.4,11.5-0.6c-5.8-6-10.1-13.5-14.6-20.6C1466,1216.2,1455.7,1202.6,1444.4,1190.1z"/>
				<path class="st8" d="M1234.8,1173.1c-4.7,7.3-9.5,14.6-14.2,21.9c-2.4,3.6-4.7,7.3-7.1,10.9c-0.6,0.9-1.2,1.9-1.9,2.8
					c-0.2-0.7-0.5-1.4-0.7-2.1c-1.2-3.8-2.4-7.6-3.6-11.3c-0.4-1.2-0.7-2.4-1.1-3.6c2.7-5.1,3.8-11.9,5.6-17.3
					c4.2-13.2,8.5-26.4,12.7-39.6c1.1-3.5-4.3-4.9-5.4-1.5c-3.6,11.1-7.1,22.2-10.7,33.3c-1.6,4.9-3.1,9.7-4.7,14.6
					c0,0.2-0.2,0.6-0.3,1.1c-1-3.3-2-6.5-2.9-9.8c-4.3-14.8-8.4-29.7-12.3-44.7c6.5-19,13-38.1,19.4-57.1c1.2-3.4-4.3-4.9-5.4-1.5
					c-5.5,16.2-11,32.4-16.6,48.6c-7.2-28.9-13.6-58-19-87.3c-0.7-3.6-6.1-2-5.4,1.5c5.5,29.6,11.9,59.1,19.3,88.3
					c-10.9-10.9-20.5-23-28.7-36.1c-1.9-3.1-6.8-0.2-4.9,2.8c10.1,16,22.2,30.6,36.1,43.5c0,0,0.1,0.1,0.2,0.1
					c1.3,5.1,2.7,10.2,4,15.2c3.6,13.2,7.4,26.3,11.3,39.4c-0.5-0.5-1-0.9-1.1-1c-15.2-15.8-29.4-32.6-42.5-50.2
					c-2.1-2.9-7-0.1-4.9,2.8c7.4,9.9,15.1,19.6,23.2,29c4.3,5,8.7,9.9,13.1,14.8c2.1,2.3,4.2,4.6,6.4,6.8c1.9,2,4.2,5.3,6.7,6.5
					c0.6,0.3,1.3,0.5,1.9,0.6c0.7,2.4,1.5,4.8,2.2,7.3c0.9,3,1.9,5.9,2.8,8.9c-2-0.6-4.4-2.3-6-3.3c-13.5-7.8-25.3-18.1-35.1-30.2
					c-2.3-2.8-6.2,1.2-4,4c6.3,7.7,13.3,14.7,21.1,20.8c6.5,5.1,13.9,10.7,21.6,13.6c1.5,0.6,2.9,0.9,4.2,0.8c0.6,2,1.3,4.2,3,5.3
					c3.7,2.3,6.8-1.7,5-5.1c-0.5-0.9-1.5-1.3-2.4-1.3c-0.1-0.3-0.2-0.5-0.3-0.8c2.9-2.2,5-6,7.2-9.5c6.3-9.7,12.6-19.5,18.9-29.2
					C1241.6,1172.9,1236.7,1170.1,1234.8,1173.1z"/>
				<path class="st8" d="M1556.5,1176c-3.2,4.9-6.4,9.9-9.6,14.8c-1.6,2.5-3.2,5-4.8,7.4c-0.4,0.6-0.8,1.3-1.3,1.9
					c-0.2-0.5-0.3-1-0.5-1.5c-0.8-2.6-1.6-5.1-2.4-7.7c-0.3-0.8-0.5-1.6-0.8-2.5c1.8-3.4,2.6-8.1,3.8-11.7
					c2.9-8.9,5.7-17.8,8.6-26.7c0.8-2.3-2.9-3.3-3.7-1c-2.4,7.5-4.8,15-7.2,22.5c-1.1,3.3-2.1,6.6-3.2,9.9c0,0.1-0.1,0.4-0.2,0.8
					c-0.7-2.2-1.3-4.4-2-6.6c-2.9-10-5.7-20.1-8.3-30.2c4.4-12.9,8.8-25.7,13.1-38.6c0.8-2.3-2.9-3.3-3.7-1
					c-3.7,11-7.5,21.9-11.2,32.9c-4.9-19.5-9.2-39.2-12.9-59c-0.4-2.4-4.1-1.4-3.7,1c3.7,20,8.1,39.9,13,59.7
					c-7.3-7.4-13.8-15.5-19.4-24.4c-1.3-2.1-4.6-0.2-3.3,1.9c6.8,10.8,15,20.7,24.4,29.4c0,0,0.1,0,0.1,0.1
					c0.9,3.4,1.8,6.9,2.7,10.3c2.4,8.9,5,17.8,7.6,26.7c-0.4-0.4-0.6-0.6-0.7-0.7c-10.3-10.7-19.9-22-28.7-33.9
					c-1.5-1.9-4.8,0-3.3,1.9c5,6.7,10.2,13.2,15.7,19.6c2.9,3.4,5.9,6.7,8.9,10c1.4,1.5,2.9,3.1,4.3,4.6c1.3,1.3,2.9,3.6,4.6,4.4
					c0.4,0.2,0.9,0.4,1.3,0.4c0.5,1.6,1,3.3,1.5,4.9c0.6,2,1.3,4,1.9,6c-1.3-0.4-3-1.6-4.1-2.2c-9.1-5.3-17.1-12.2-23.8-20.4
					c-1.5-1.9-4.2,0.8-2.7,2.7c4.2,5.2,9,9.9,14.3,14.1c4.4,3.4,9.4,7.2,14.6,9.2c1,0.4,2,0.6,2.8,0.6c0.4,1.4,0.9,2.9,2,3.6
					c2.5,1.6,4.6-1.1,3.4-3.4c-0.3-0.6-1-0.9-1.6-0.9c-0.1-0.2-0.1-0.3-0.2-0.5c1.9-1.5,3.4-4.1,4.9-6.4c4.3-6.6,8.5-13.2,12.8-19.7
					C1561.1,1175.8,1557.9,1173.9,1556.5,1176z"/>
			</g>
			<g>
				<path class="st6" d="M927.5,1217.7c3.7-19.2-5.9-38-11.3-56.7c-6.8-23.6-7-49-0.7-72.6c3.9-14.4,12-29.9,26.5-33.4
					c19.7-4.8,36.5,14.6,45.7,32.6c19.5,38,30.7,81.6,60.6,112.1c6.2,6.3,16.7,11.9,23,5.7c3.6-3.5,3.7-9.4,7-13.1
					c5.3-6.1,15.8-3.4,21.6,2.3c5.8,5.7,9,13.6,14.7,19.4c2,2.1,4.6,3.9,7.5,4c12.6,0.5,8.3-25.2,20.4-28.7
					c7.4,6.4,15.1,12.3,23.1,17.9c2.6,1.8,5.4,3.6,8.5,3.8c11.4,0.9,13.7-15.6,12.7-26.9c-1.9-23.1,1.4-47.1,12.4-67.6
					c3.1-5.8,8.5-12,14.9-10.4c3.1,0.7,5.4,3.2,7.6,5.6c30.1,33.6,55,71.8,73.4,113c1.7,3.7,3.2,8.2,1.1,11.7
					c-1.5,2.4-4.4,3.5-7,4.4c-31.1,10.5-64.4,12.5-97.2,14.2c-79.9,4.2-159.8,7.3-239.7,9.7c-19.2,0.6-61.9,5.8-68.8-19.5
					C871.9,1202.7,923.1,1240.8,927.5,1217.7z"/>
				<path class="st7" d="M1083,1244.8c-3.4-13.7-6.9-27.4-10.3-41.1c-0.4,0.5-0.8,1-1.3,1.5c-6.3,6.2-16.8,0.6-23-5.7
					c-29.9-30.5-41.1-74.1-60.6-112.1c-9.1-17.7-25.5-36.7-44.7-32.8c-2.2,7.6-1,16.7,2.6,24c5.8,11.8,16.2,20.6,24.8,30.5
					c14.8,17,24.7,38.2,28.4,60.4c3.2,19.2,1.9,39.8,10.8,57.1c7.6,14.9,21.6,25.2,35.5,34.8c13.1-0.5,26.3-1,39.4-1.6
					C1085.4,1255.1,1084.3,1249.7,1083,1244.8z"/>
				<path class="st7" d="M1295.2,1224.6c-18.4-41.2-43.2-79.5-73.4-113c-2.1-2.4-4.5-4.8-7.6-5.6c-2.3-0.6-4.5-0.1-6.5,1
					c-4.6,37.4,8.5,76.9,35.5,103.4c8,7.8,17.2,14.7,22.6,24.5c1.9,3.4,3.2,7.4,3.6,11.4c6.7-1.5,13.3-3.3,19.8-5.5
					c2.7-0.9,5.5-2,7-4.4C1298.5,1232.8,1296.9,1228.3,1295.2,1224.6z"/>
				<path class="st7" d="M1166,1207.3c-0.1-0.1-0.2-0.1-0.3-0.2c-8-5.5-15.7-11.5-23.1-17.9c-3.1,0.9-5.1,3.2-6.6,6.1
					c2.8,20.6,5.5,41.2,8.3,61.9c-9.3-0.3-15.2-9.7-19.4-17.9c-6.5-12.6-12.9-25.3-19.4-37.9c-1.7-2.4-3.4-4.8-5.5-6.9
					c-5.8-5.7-16.2-8.4-21.6-2.3c-2.9,3.3-3.4,8.1-5.8,11.6c3.4,13.7,6.9,27.4,10.3,41.1c1.2,4.9,2.4,10.3,1.6,15.1
					c35.8-1.5,71.6-3.1,107.4-5c3-0.2,5.9-0.3,8.9-0.5c-4.5-4.7-7.8-10.4-11.2-15.9C1182.7,1227.5,1174.8,1217,1166,1207.3z"/>
				<path class="st8" d="M1004.2,1194.2c-3.7,5.6-7.3,11.3-11,16.9c-1.8,2.8-3.6,5.7-5.5,8.4c-0.5,0.7-0.9,1.5-1.5,2.2
					c-0.2-0.6-0.4-1.1-0.5-1.7c-0.9-2.9-1.9-5.8-2.8-8.8c-0.3-0.9-0.6-1.9-0.9-2.8c2.1-3.9,3-9.2,4.3-13.4
					c3.3-10.2,6.5-20.4,9.8-30.5c0.9-2.7-3.3-3.8-4.2-1.2c-2.8,8.6-5.5,17.1-8.3,25.7c-1.2,3.7-2.4,7.5-3.6,11.2
					c0,0.1-0.1,0.4-0.2,0.9c-0.8-2.5-1.5-5-2.2-7.5c-3.4-11.4-6.5-23-9.5-34.5c5-14.7,10-29.4,15-44.1c0.9-2.7-3.3-3.8-4.2-1.2
					c-4.3,12.5-8.5,25-12.8,37.5c-5.6-22.3-10.5-44.8-14.7-67.4c-0.5-2.7-4.7-1.6-4.2,1.2c4.3,22.9,9.2,45.6,14.9,68.1
					c-8.4-8.4-15.8-17.7-22.2-27.8c-1.5-2.4-5.2-0.2-3.8,2.2c7.8,12.4,17.1,23.6,27.9,33.6c0,0,0.1,0.1,0.1,0.1
					c1,3.9,2.1,7.8,3.1,11.7c2.8,10.2,5.7,20.3,8.7,30.4c-0.4-0.4-0.7-0.7-0.8-0.8c-11.7-12.2-22.7-25.2-32.8-38.7
					c-1.7-2.2-5.4,0-3.8,2.2c5.7,7.6,11.7,15.1,17.9,22.4c3.3,3.9,6.7,7.7,10.1,11.4c1.6,1.8,3.3,3.5,4.9,5.3c1.5,1.5,3.3,4.1,5.2,5
					c0.5,0.3,1,0.4,1.5,0.5c0.6,1.9,1.1,3.7,1.7,5.6c0.7,2.3,1.5,4.6,2.2,6.9c-1.5-0.4-3.4-1.8-4.6-2.5c-10.4-6-19.5-14-27.1-23.3
					c-1.8-2.2-4.8,0.9-3.1,3.1c4.8,6,10.2,11.3,16.3,16.1c5,3.9,10.7,8.2,16.7,10.5c1.2,0.5,2.3,0.7,3.2,0.7c0.4,1.6,1,3.3,2.3,4.1
					c2.9,1.8,5.2-1.3,3.9-3.9c-0.4-0.7-1.1-1-1.9-1c-0.1-0.2-0.1-0.4-0.2-0.6c2.2-1.7,3.8-4.7,5.6-7.3c4.9-7.5,9.7-15,14.6-22.5
					C1009.5,1194,1005.7,1191.8,1004.2,1194.2z"/>
				<path class="st8" d="M1252.6,1196.4c-2.5,3.8-4.9,7.6-7.4,11.4c-1.2,1.9-2.4,3.8-3.7,5.7c-0.3,0.5-0.6,1-1,1.5
					c-0.1-0.4-0.2-0.7-0.4-1.1c-0.6-2-1.3-3.9-1.9-5.9c-0.2-0.6-0.4-1.3-0.6-1.9c1.4-2.6,2-6.2,2.9-9c2.2-6.9,4.4-13.8,6.6-20.6
					c0.6-1.8-2.3-2.6-2.8-0.8c-1.9,5.8-3.7,11.6-5.6,17.4c-0.8,2.5-1.6,5.1-2.4,7.6c0,0.1-0.1,0.3-0.2,0.6c-0.5-1.7-1-3.4-1.5-5.1
					c-2.3-7.7-4.4-15.5-6.4-23.3c3.4-9.9,6.8-19.9,10.1-29.8c0.6-1.8-2.2-2.6-2.8-0.8c-2.9,8.5-5.8,16.9-8.6,25.4
					c-3.8-15.1-7.1-30.3-9.9-45.5c-0.3-1.9-3.2-1.1-2.8,0.8c2.9,15.5,6.2,30.8,10.1,46.1c-5.7-5.7-10.7-12-15-18.8
					c-1-1.6-3.5-0.1-2.5,1.5c5.3,8.4,11.6,16,18.8,22.7c0,0,0.1,0,0.1,0.1c0.7,2.7,1.4,5.3,2.1,7.9c1.9,6.9,3.8,13.7,5.9,20.6
					c-0.3-0.3-0.5-0.5-0.6-0.5c-7.9-8.3-15.3-17-22.2-26.2c-1.1-1.5-3.7,0-2.5,1.5c3.9,5.2,7.9,10.2,12.1,15.1
					c2.2,2.6,4.5,5.2,6.8,7.7c1.1,1.2,2.2,2.4,3.3,3.6c1,1,2.2,2.7,3.5,3.4c0.3,0.2,0.7,0.3,1,0.3c0.4,1.3,0.8,2.5,1.2,3.8
					c0.5,1.5,1,3.1,1.5,4.6c-1-0.3-2.3-1.2-3.1-1.7c-7.1-4.1-13.2-9.5-18.3-15.8c-1.2-1.5-3.3,0.6-2.1,2.1c3.3,4,6.9,7.7,11,10.9
					c3.4,2.7,7.2,5.6,11.3,7.1c0.8,0.3,1.5,0.4,2.2,0.4c0.3,1.1,0.7,2.2,1.6,2.8c1.9,1.2,3.5-0.9,2.6-2.7c-0.2-0.5-0.8-0.7-1.3-0.7
					c0-0.1-0.1-0.3-0.1-0.4c1.5-1.2,2.6-3.2,3.8-5c3.3-5.1,6.6-10.2,9.9-15.2C1256.2,1196.3,1253.6,1194.8,1252.6,1196.4z"/>
			</g>
			<g>
				
					<ellipse transform="matrix(0.9843 -0.1767 0.1767 0.9843 -193.3267 174.578)" class="st9" cx="883.6" cy="1172.8" rx="30.8" ry="52.6"/>
				
					<ellipse transform="matrix(1.789909e-02 -0.9998 0.9998 1.789909e-02 -311.1924 2022.1145)" class="st10" cx="873.7" cy="1169.5" rx="54.5" ry="31.9"/>
				<g>
					<g>
						<polygon class="st10" points="593.4,1044.3 726,1022 730.8,1154 653.2,1162.2 						"/>
						<polygon class="st9" points="439,1134 474.3,1205.5 657.9,1162.1 593.4,1044.3 						"/>
						<path class="st10" d="M454,1131.4c0,1.5,29,56.4,29,56.4h14.9l-30-63L454,1131.4z"/>
						
							<ellipse transform="matrix(0.9843 -0.1767 0.1767 0.9843 -196.0932 144.4782)" class="st9" cx="713.2" cy="1173.3" rx="30.8" ry="52.6"/>
						<path class="st10" d="M958.5,1206.9c0,0-161.3-8.3-194.2,4l-41.1-18.1l-28.7-62.8l2.8-16.3l37.2-19.8l39.4,47.8l121.5-8.2
							l59.4,41.1L958.5,1206.9z"/>
						<path class="st11" d="M621,977.8l58.6,157.8l46.9-16c0,0,30.7,53.7,36.2,63.4c0,0,139.4-17.2,192.3-8.4l-15.8-74l-51.5-6.7
							c0,0-10.4-59.9-61.1-91.6L760,962.8L621,977.8z"/>
						<path class="st12" d="M811.7,1177.8C811.7,1177.8,811.7,1177.8,811.7,1177.8c45.3-4.2,110.6-8.7,143.1-3.2l-15.8-74l-7.1-0.9
							c-36.9,3.8-134.2,16.1-134.2,16.1L811.7,1177.8z"/>
						<path class="st13" d="M746,1107.9c-16.4-55.5-96.8-110.3-124.2-127.7l57.7,155.4l46.9-16c0,0,30.7,53.7,36.2,63.4
							c0,0,20.7-2.6,49.1-5.2l-14.1-62.1L746,1107.9z"/>
						<path class="st10" d="M657.9,1162.1"/>
						
							<ellipse transform="matrix(0.9843 -0.1767 0.1767 0.9843 -205.2566 124.213)" class="st9" cx="594.8" cy="1214.6" rx="20.6" ry="35.1"/>
						
							<ellipse transform="matrix(0.9843 -0.1767 0.1767 0.9843 -207.8613 114.6693)" class="st9" cx="539.9" cy="1224.5" rx="20.6" ry="35.1"/>
						<polygon class="st10" points="482.5,1223.4 474.3,1205.5 717.9,1139.3 725.2,1157.8 						"/>
						
							<ellipse transform="matrix(0.9843 -0.1767 0.1767 0.9843 -208.846 112.8298)" class="st10" cx="529.1" cy="1229.1" rx="20.6" ry="35.1"/>
						
							<ellipse transform="matrix(0.9843 -0.1767 0.1767 0.9843 -206.0702 121.3929)" class="st10" cx="578.6" cy="1217.8" rx="20.6" ry="35.1"/>
						
							<ellipse transform="matrix(1.789909e-02 -0.9998 0.9998 1.789909e-02 -479.0201 1852.2234)" class="st10" cx="703.3" cy="1169.9" rx="54.5" ry="31.9"/>
						<path class="st10" d="M621,982.9"/>
					</g>
					<path class="st10" d="M476.9,1121.5c0,1.5,32.4,66.3,32.4,66.3l12.9-3.7l-33.9-68.4L476.9,1121.5z"/>
					<path class="st10" d="M494.8,1111.4c0,1.6,34.1,70,34.1,70l13.6-3.9l-35.8-72.1L494.8,1111.4z"/>
					<path class="st10" d="M516.1,1102.4c0,1.6,34.1,70,34.1,70l13.6-3.9l-35.8-72.1L516.1,1102.4z"/>
					<path class="st10" d="M537.4,1085.8c0,1.8,37.9,77.7,37.9,77.7l15.1-4.3l-39.7-80.1L537.4,1085.8z"/>
					<path class="st10" d="M564.9,1067.1c0,2.1,43.5,89.2,43.5,89.2l17.3-4.9l-45.6-92L564.9,1067.1z"/>
				</g>
				<path class="st10" d="M650.6,1036.8l26.5,57.1l53.7,4.7C730.8,1098.6,707.8,1029.4,650.6,1036.8z"/>
				<path class="st10" d="M722.2,1041.7c0,0,29.4,53,41.2,53s115.3-9.3,115.3-9.3s-7.4-42.7-29.4-55.4L722.2,1041.7z"/>
				<g>
					<polygon class="st10" points="779.6,1145.3 854.5,1145.3 858.1,1165 786,1167.4 					"/>
					<circle class="st13" cx="800.4" cy="1156" r="8"/>
					<circle class="st13" cx="823.2" cy="1156" r="8"/>
					<circle class="st13" cx="845.5" cy="1156" r="8"/>
				</g>
				<g>
					<polygon class="st10" points="901.1,1163.1 956.2,1157.6 957.2,1140.9 904,1144.1 					"/>
					
						<ellipse transform="matrix(0.9951 -9.882542e-02 9.882542e-02 0.9951 -109.4302 96.1233)" class="st13" cx="915.6" cy="1152.7" rx="5.9" ry="6.8"/>
					
						<ellipse transform="matrix(0.9951 -9.882542e-02 9.882542e-02 0.9951 -109.1841 97.7685)" class="st13" cx="932.3" cy="1151" rx="5.9" ry="6.8"/>
					
						<ellipse transform="matrix(0.9951 -9.882542e-02 9.882542e-02 0.9951 -108.9426 99.3828)" class="st13" cx="948.7" cy="1149.4" rx="5.9" ry="6.8"/>
				</g>
				<path class="st10" d="M876.3,1114.3c7.5-0.9,15-1,22.5-1.6c-0.1-3.5-0.1-5.6-0.1-5.6l-51.6,5.3l1.3,4.7
					C857.7,1116.5,867,1115.3,876.3,1114.3z"/>
				<path class="st10" d="M880.5,1125.1c6.1-0.8,12.3-0.9,18.4-1.4c0-1.3,0-2.6,0-3.8c-6.8,0.5-13.7,0.9-20.5,1.6
					c-5.9,0.6-11.8,1.1-17.6,1.8c-3.4,0.4-6.8,1.2-10.3,1.5l1.2,4.1C861.3,1127.7,870.9,1126.3,880.5,1125.1z"/>
				<path class="st10" d="M880.7,1131.3c6-0.8,12.2-0.7,18.2-1.1c0-1.8,0-3.5,0-5.1c-5.7,0.5-11.4,0.6-17,1.3
					c-10,1.3-19.9,2.7-29.9,3.8l1,3.6C862.4,1134.2,871.5,1132.4,880.7,1131.3z"/>
				<path class="st10" d="M880,1136.1c6.3-0.7,12.7-1,19.1-1.6c0-1,0-1.9,0-2.9c-5.6,0.4-11.3,0.3-16.9,1c-9.5,1.1-19,3-28.6,2.7
					l0.9,3.1C863,1138.7,871.4,1137,880,1136.1z"/>
				<path class="st10" d="M883.4,1140.7c5.2-0.6,10.4-0.9,15.6-1.2c0-1.2,0-2.4,0-3.6c-5.9,0.6-11.8,0.9-17.7,1.5
					c-8.8,0.9-17.6,2.7-26.5,2.4l1.1,3.9C865.1,1143.3,874.2,1141.7,883.4,1140.7z"/>
				<path class="st10" d="M881.1,1147.2c5.9-1,11.9-1.4,17.9-2.1c0-1.4,0-2.8,0-4.2c-4.8,0.4-9.5,0.6-14.3,1.1
					c-9.5,0.9-18.9,2.7-28.4,3.1l1.4,4.9C865.5,1150.9,873.5,1148.4,881.1,1147.2z"/>
				<path class="st10" d="M899,1152c0-1.8,0-3.6,0-5.5c-6.5,0.7-13.1,1.2-19.5,2.3c-7,1.3-14.2,3.3-21.4,2.6l1.2,4.2
					C872.6,1155.6,885.8,1153.7,899,1152z"/>
				<path class="st10" d="M899,1157.3c0-1.3,0-2.6,0-3.8c-13.1,1.6-26.1,3.5-39.3,3.6l1.3,4.7C873.8,1161.9,886.3,1159,899,1157.3z"
					/>
				<path class="st10" d="M898.8,1164.8c0-2,0.1-4,0.1-6.1c-12.5,1.7-24.9,4.5-37.5,4.5l1.3,4.5
					C874.8,1168,886.9,1166.6,898.8,1164.8z"/>
				<path class="st10" d="M863.1,1169.2l3.5,12.2l31.9-3.2c0.2-3.7,0.3-7.7,0.4-11.8C887,1168,875.1,1169.4,863.1,1169.2z"/>
				<path class="st10" d="M855.3,1122.4c2.7-0.4,5.4-0.7,8.2-0.9c5.4-0.6,10.8-1.1,16.2-1.6c6.4-0.6,12.8-1,19.1-1.4
					c0-1.5,0-3-0.1-4.2c-7,0.6-14.1,0.7-21.1,1.4c-9.6,1-19.2,2.3-28.9,3l1.3,4.6C851.8,1123,853.5,1122.6,855.3,1122.4z"/>
			</g>
			<g>
				<path class="st6" d="M329.6,1217.7c3.7-19.2-5.9-38-11.3-56.7c-6.8-23.6-7-49-0.7-72.6c3.9-14.4,12-29.9,26.5-33.4
					c19.7-4.8,36.5,14.6,45.7,32.6c19.5,38,30.7,81.6,60.6,112.1c6.2,6.3,16.7,11.9,23,5.7c3.6-3.5,3.7-9.4,7-13.1
					c5.3-6.1,15.8-3.4,21.6,2.3c5.8,5.7,9,13.6,14.7,19.4c2,2.1,4.6,3.9,7.5,4c12.6,0.5,8.3-25.2,20.4-28.7
					c7.4,6.4,15.1,12.3,23.1,17.9c2.6,1.8,5.4,3.6,8.5,3.8c11.4,0.9,13.7-15.6,12.7-26.9c-1.9-23.1,1.4-47.1,12.4-67.6
					c3.1-5.8,8.5-12,14.9-10.4c3.1,0.7,5.4,3.2,7.6,5.6c30.1,33.6,55,71.8,73.4,113c1.7,3.7,3.2,8.2,1.1,11.7
					c-1.5,2.4-4.4,3.5-7,4.4c-31.1,10.5-64.4,12.5-97.2,14.2c-79.9,4.2-159.8,7.3-239.7,9.7c-19.2,0.6-61.9,5.8-68.8-19.5
					C273.9,1202.7,325.1,1240.8,329.6,1217.7z"/>
				<path class="st7" d="M485.1,1244.8c-3.4-13.7-6.9-27.4-10.3-41.1c-0.4,0.5-0.8,1-1.3,1.5c-6.3,6.2-16.8,0.6-23-5.7
					c-29.9-30.5-41.1-74.1-60.6-112.1c-9.1-17.7-25.5-36.7-44.7-32.8c-2.2,7.6-1,16.7,2.6,24c5.8,11.8,16.2,20.6,24.8,30.5
					c14.8,17,24.7,38.2,28.4,60.4c3.2,19.2,1.9,39.8,10.8,57.1c7.6,14.9,21.6,25.2,35.5,34.8c13.1-0.5,26.3-1,39.4-1.6
					C487.4,1255.1,486.3,1249.7,485.1,1244.8z"/>
				<path class="st7" d="M697.3,1224.6c-18.4-41.2-43.2-79.5-73.4-113c-2.1-2.4-4.5-4.8-7.6-5.6c-2.3-0.6-4.5-0.1-6.5,1
					c-4.6,37.4,8.5,76.9,35.5,103.4c8,7.8,17.2,14.7,22.6,24.5c1.9,3.4,3.2,7.4,3.6,11.4c6.7-1.5,13.3-3.3,19.8-5.5
					c2.7-0.9,5.5-2,7-4.4C700.5,1232.8,698.9,1228.3,697.3,1224.6z"/>
				<path class="st7" d="M568.1,1207.3c-0.1-0.1-0.2-0.1-0.3-0.2c-8-5.5-15.7-11.5-23.1-17.9c-3.1,0.9-5.1,3.2-6.6,6.1
					c2.8,20.6,5.5,41.2,8.3,61.9c-9.3-0.3-15.2-9.7-19.4-17.9c-6.5-12.6-12.9-25.3-19.4-37.9c-1.7-2.4-3.4-4.8-5.5-6.9
					c-5.8-5.7-16.2-8.4-21.6-2.3c-2.9,3.3-3.4,8.1-5.8,11.6c3.4,13.7,6.9,27.4,10.3,41.1c1.2,4.9,2.4,10.3,1.6,15.1
					c35.8-1.5,71.6-3.1,107.4-5c3-0.2,5.9-0.3,8.9-0.5c-4.5-4.7-7.8-10.4-11.2-15.9C584.8,1227.5,576.9,1217,568.1,1207.3z"/>
				<path class="st8" d="M406.3,1194.2c-3.7,5.6-7.3,11.3-11,16.9c-1.8,2.8-3.6,5.7-5.5,8.4c-0.5,0.7-0.9,1.5-1.5,2.2
					c-0.2-0.6-0.4-1.1-0.5-1.7c-0.9-2.9-1.9-5.8-2.8-8.8c-0.3-0.9-0.6-1.9-0.9-2.8c2.1-3.9,3-9.2,4.3-13.4
					c3.3-10.2,6.5-20.4,9.8-30.5c0.9-2.7-3.3-3.8-4.2-1.2c-2.8,8.6-5.5,17.1-8.3,25.7c-1.2,3.7-2.4,7.5-3.6,11.2
					c0,0.1-0.1,0.4-0.2,0.9c-0.8-2.5-1.5-5-2.2-7.5c-3.4-11.4-6.5-23-9.5-34.5c5-14.7,10-29.4,15-44.1c0.9-2.7-3.3-3.8-4.2-1.2
					c-4.3,12.5-8.5,25-12.8,37.5c-5.6-22.3-10.5-44.8-14.7-67.4c-0.5-2.7-4.7-1.6-4.2,1.2c4.3,22.9,9.2,45.6,14.9,68.1
					c-8.4-8.4-15.8-17.7-22.2-27.8c-1.5-2.4-5.2-0.2-3.8,2.2c7.8,12.4,17.1,23.6,27.9,33.6c0,0,0.1,0.1,0.1,0.1
					c1,3.9,2.1,7.8,3.1,11.7c2.8,10.2,5.7,20.3,8.7,30.4c-0.4-0.4-0.7-0.7-0.8-0.8c-11.7-12.2-22.7-25.2-32.8-38.7
					c-1.7-2.2-5.4,0-3.8,2.2c5.7,7.6,11.7,15.1,17.9,22.4c3.3,3.9,6.7,7.7,10.1,11.4c1.6,1.8,3.3,3.5,4.9,5.3c1.5,1.5,3.3,4.1,5.2,5
					c0.5,0.3,1,0.4,1.5,0.5c0.6,1.9,1.1,3.7,1.7,5.6c0.7,2.3,1.5,4.6,2.2,6.9c-1.5-0.4-3.4-1.8-4.6-2.5c-10.4-6-19.5-14-27.1-23.3
					c-1.8-2.2-4.8,0.9-3.1,3.1c4.8,6,10.2,11.3,16.3,16.1c5,3.9,10.7,8.2,16.7,10.5c1.2,0.5,2.3,0.7,3.2,0.7c0.4,1.6,1,3.3,2.3,4.1
					c2.9,1.8,5.2-1.3,3.9-3.9c-0.4-0.7-1.1-1-1.9-1c-0.1-0.2-0.1-0.4-0.2-0.6c2.2-1.7,3.8-4.7,5.6-7.3c4.9-7.5,9.7-15,14.6-22.5
					C411.6,1194,407.8,1191.8,406.3,1194.2z"/>
				<path class="st8" d="M654.6,1196.4c-2.5,3.8-4.9,7.6-7.4,11.4c-1.2,1.9-2.4,3.8-3.7,5.7c-0.3,0.5-0.6,1-1,1.5
					c-0.1-0.4-0.2-0.7-0.4-1.1c-0.6-2-1.3-3.9-1.9-5.9c-0.2-0.6-0.4-1.3-0.6-1.9c1.4-2.6,2-6.2,2.9-9c2.2-6.9,4.4-13.8,6.6-20.6
					c0.6-1.8-2.3-2.6-2.8-0.8c-1.9,5.8-3.7,11.6-5.6,17.4c-0.8,2.5-1.6,5.1-2.4,7.6c0,0.1-0.1,0.3-0.2,0.6c-0.5-1.7-1-3.4-1.5-5.1
					c-2.3-7.7-4.4-15.5-6.4-23.3c3.4-9.9,6.8-19.9,10.1-29.8c0.6-1.8-2.2-2.6-2.8-0.8c-2.9,8.5-5.8,16.9-8.6,25.4
					c-3.8-15.1-7.1-30.3-9.9-45.5c-0.3-1.9-3.2-1.1-2.8,0.8c2.9,15.5,6.2,30.8,10.1,46.1c-5.7-5.7-10.7-12-15-18.8
					c-1-1.6-3.5-0.1-2.5,1.5c5.3,8.4,11.6,16,18.8,22.7c0,0,0.1,0,0.1,0.1c0.7,2.7,1.4,5.3,2.1,7.9c1.9,6.9,3.8,13.7,5.9,20.6
					c-0.3-0.3-0.5-0.5-0.6-0.5c-7.9-8.3-15.3-17-22.2-26.2c-1.1-1.5-3.7,0-2.5,1.5c3.9,5.2,7.9,10.2,12.1,15.1
					c2.2,2.6,4.5,5.2,6.8,7.7c1.1,1.2,2.2,2.4,3.3,3.6c1,1,2.2,2.7,3.5,3.4c0.3,0.2,0.7,0.3,1,0.3c0.4,1.3,0.8,2.5,1.2,3.8
					c0.5,1.5,1,3.1,1.5,4.6c-1-0.3-2.3-1.2-3.1-1.7c-7.1-4.1-13.2-9.5-18.3-15.8c-1.2-1.5-3.3,0.6-2.1,2.1c3.3,4,6.9,7.7,11,10.9
					c3.4,2.7,7.2,5.6,11.3,7.1c0.8,0.3,1.5,0.4,2.2,0.4c0.3,1.1,0.7,2.2,1.6,2.8c1.9,1.2,3.5-0.9,2.6-2.7c-0.2-0.5-0.8-0.7-1.3-0.7
					c0-0.1-0.1-0.3-0.1-0.4c1.5-1.2,2.6-3.2,3.8-5c3.3-5.1,6.6-10.2,9.9-15.2C658.2,1196.3,655.7,1194.8,654.6,1196.4z"/>
			</g>
			<path class="st4" d="M2159.4,1497.1c-37.7-7.8-76.6-4.6-115.1-4.8c-45.8-0.2-91.5-5.2-136.2-15c-4.9-1.1-10.4-2.7-12.5-7.2
				c-3.7-8,6.1-15.3,14.2-18.7c27.8-11.7,55.6-23.5,83.4-35.2c10.4-4.4,21.1-9,28.9-17.2c7.8-8.2,12.1-20.9,7.1-31
				c-2.8-5.8-8.1-10-13.6-13.4c-31.6-20.1-70.7-23.3-108.1-24.8c-51.1-2.1-106.5-4.7-161.8-3.9l174.4-30.6
				c22.6-4,22.7-41.4,0.2-45.4c-5.3-0.9-10.9-1.9-16.8-3c-480.8-89-1758.9,15.6-1758.9,15.6c28,34.4,111.5,54.4,151.5,43.5
				c13-3.5,16.3,0.7,14.1,9.3c-11.1,44.5,18,88.6,58.1,85.9c112.6-7.6,243.2-47.8,332.7-4.7c14.9,7.2,31.7,25.6,22.7,41.2
				c-4.5,7.8-13.6,9.9-21.6,11.6c-34.1,7.1-67.5,18.8-99.2,34.9c-2.7,1.4-5,3.5-6.6,6.4c-6.4,11.5,4.6,22.4,14.2,27.5
				c76.6,41.4,165.8,29.1,250.6,27.7s179.8,15.3,230.8,93.2c10.9,16.6,19.4,35.6,33.3,48.8c20.8,19.7,49.6,22.8,76.6,24.3
				c170,9.4,341.4-13.3,505.3-67c11.7-3.8,24.9-9.6,28.7-22.9c77.6-6.8,155.7-23.2,231.7-39.6c63.4-13.8,126.8-27.5,190.2-41.3
				c12.8-2.8,28.4-8.8,28.8-21.9C2186.7,1506.8,2171.9,1499.7,2159.4,1497.1z"/>
			<path class="st14" d="M2159.4,1497.1c-37.7-7.8-76.6-4.6-115.1-4.8c-45.8-0.2-91.5-5.2-136.2-15c-4.9-1.1-10.4-2.7-12.5-7.2
				c-3.7-8,6.1-15.3,14.2-18.7c27.8-11.7,55.6-23.5,83.4-35.2c10.4-4.4,21.1-9,28.9-17.2c7.8-8.2,12.1-20.9,7.1-31
				c-2.8-5.8-8.1-10-13.6-13.4c-31.6-20.1-70.7-23.3-108.1-24.8c-51.1-2.1-106.5-4.7-161.8-3.9l174.4-30.6
				c12.6-2.2,18.3-14.9,16.8-26.4c-174.5,10.2-349.6,11.3-524.3,3.3c-54.5-2.5-109-5.8-163.4-9.2c-36.3-2.2-72.6-4.5-109-6.7
				c-90-5.5-180.2-11.1-270.4-9.1c-83.1,1.9-165.9,10.2-248.9,16.1c-155.9,11-312.4,13.5-468.5,7.3c33.5,29.3,106.8,45.3,143.5,35.4
				c13-3.5,16.3,0.7,14.1,9.3c-11.1,44.5,18,88.6,58.1,85.9c112.6-7.6,243.2-47.8,332.7-4.7c14.9,7.2,31.7,25.6,22.7,41.2
				c-4.5,7.8-13.6,9.9-21.6,11.6c-34.1,7.1-67.5,18.8-99.2,34.9c-2.7,1.4-5,3.5-6.6,6.4c-6.4,11.5,4.6,22.4,14.2,27.5
				c76.6,41.4,165.8,29.1,250.6,27.7s179.8,15.3,230.8,93.2c10.9,16.6,19.4,35.6,33.3,48.8c20.8,19.7,49.6,22.8,76.6,24.3
				c170,9.4,341.4-13.3,505.3-67c11.7-3.8,24.9-9.6,28.7-22.9c77.6-6.8,155.7-23.2,231.7-39.6c63.4-13.8,126.8-27.5,190.2-41.3
				c12.8-2.8,28.4-8.8,28.8-21.9C2186.7,1506.8,2171.9,1499.7,2159.4,1497.1z"/>
			<path class="st15" d="M1412.7,1272.2c174.7,7.9,349.7,6.8,524.3-3.3c0,0,0,0,0,0c-1.1-9-6.7-17.3-16.6-19
				c-5.3-0.9-10.9-1.9-16.8-3c-89.6-16.6-206.8-26.4-338.4-31.5c-70.6,16.9-140.9,35.2-211.1,53.9
				C1373.6,1270.4,1393.1,1271.4,1412.7,1272.2z"/>
			<path class="st15" d="M1354,1269.3c-34.9-1.9-69.9-4.1-104.8-6.2c-36.3-2.2-72.6-4.5-109-6.7c-90-5.5-180.2-11.1-270.4-9.1
				c-83.1,1.9-165.9,10.2-248.9,16.1c-155.9,11-312.4,13.5-468.5,7.3c4.2,3.6,9,7.1,14.2,10.3c0,0,0.1,0,0.1,0.1
				c1.3,0.8,2.6,1.6,4,2.3c0,0,0.1,0,0.1,0.1c6.8,3.9,14.4,7.3,22.3,10.4c0.1,0,0.1,0,0.2,0.1c1.5,0.6,3.1,1.2,4.6,1.7
				c0.1,0,0.2,0.1,0.2,0.1c1.6,0.6,3.1,1.1,4.7,1.6c0,0,0.1,0,0.1,0c4.9,1.6,9.8,3.1,14.9,4.4c0,0,0.1,0,0.1,0
				c1.6,0.4,3.2,0.8,4.8,1.2c0.1,0,0.3,0.1,0.4,0.1c1.6,0.4,3.1,0.7,4.7,1.1c0.2,0,0.3,0.1,0.5,0.1c1.6,0.3,3.1,0.6,4.7,0.9
				c0.1,0,0.3,0.1,0.4,0.1c1.6,0.3,3.2,0.6,4.8,0.9c0.1,0,0.1,0,0.2,0c3.2,0.5,6.5,1,9.7,1.4c0.1,0,0.2,0,0.4,0
				c1.5,0.2,3,0.3,4.5,0.5c0.2,0,0.4,0,0.6,0.1c1.4,0.1,2.9,0.3,4.3,0.4c0.2,0,0.4,0,0.6,0c1.4,0.1,2.8,0.2,4.2,0.2
				c0.2,0,0.4,0,0.6,0c1.4,0.1,2.8,0.1,4.2,0.1c0.1,0,0.2,0,0.4,0c1.4,0,2.9,0,4.3,0c0,0,0,0,0,0c1.4,0,2.8-0.1,4.1-0.1
				c0.1,0,0.3,0,0.4,0c1.3-0.1,2.5-0.1,3.8-0.2c0.2,0,0.4,0,0.6,0c1.2-0.1,2.4-0.2,3.6-0.4c0.2,0,0.4,0,0.6-0.1
				c1.2-0.1,2.3-0.3,3.4-0.5c0.2,0,0.3-0.1,0.5-0.1c1.1-0.2,2.2-0.4,3.3-0.6c0.1,0,0.2-0.1,0.3-0.1c1.1-0.2,2.2-0.5,3.3-0.8
				c13-3.5,16.3,0.7,14.1,9.3c-11.1,44.5,18,88.6,58.1,85.9c112.6-7.6,243.2-47.8,332.7-4.7c11.9,5.7,25,18.6,25.2,31.4
				c134.6-31.3,268.9-63.8,402.6-98.8C1203.8,1309.7,1278.9,1289.3,1354,1269.3z"/>
			<path class="st16" d="M1458.5,1454.3c-1,8.9,10.4,13.3,19.3,14.6c55.1,7.9,110.8,11.5,166.5,10.7c8.9-0.1,18.7-0.7,25.1-6.9
				c3.2-3,5.1-7.1,7.9-10.5c10.7-13.2,30.2-14.1,47.2-14.2c61.8-0.4,123.6-5,184.7-13.8c8.4-1.2,18.3-3.5,21.6-11.4
				c3.2-7.7-2.3-16.8-9.7-20.5s-16.2-3.5-24.5-3.2c-82,3.2-163.9,9.3-245.5,18.2C1581.8,1425,1523.4,1423.6,1458.5,1454.3z"/>
			<path class="st10" d="M824.3,1462.1c-4.2,1.7-8.5,3.8-11.3,7.4c-2.7,3.6-3.2,9.4,0.1,12.5c2.6,2.4,6.5,2.6,10,2.6
				c25.2,0.1,50.4,0.1,75.6,0.2c-16.9,0.6-33.5,6.6-46.8,17c-1.8,1.4-3.6,3.1-3.8,5.3c-0.3,4.8,6.4,6.3,11.3,5.9
				c24.9-1.9,49.8-3.7,74.7-5.6c-10.4,2-19.6,9.2-24.3,18.7c18.3,3.7,36.7,7.4,55,11c19.1,3.8,52.7,14.4,67.5,27.2
				c-2.4-20.6-32.4-42.7-47.7-56.6c-20.1-18.3-44.4-50.6-71.3-58.7C887.8,1441.3,847.3,1450.6,824.3,1462.1z"/>
			<path class="st17" d="M712.4,1227.1c69.4,54.5,241.6,199.8,337.6,367.2c15.8,12,30,26.7,41.8,44.8c10.9,16.6,19.4,35.6,33.3,48.8
				c20.8,19.7,49.6,22.8,76.6,24.3c170,9.4,341.4-13.3,505.3-67c6-2,12.5-4.5,17.8-8.3c-193.8-144.4-505-352.1-770.5-419.5
				C871.2,1220.1,789.7,1223.4,712.4,1227.1z"/>
			<path class="st0" d="M971.3,1435.6c-30.7-17.1-61.5-34.8-91.4-53.7c60.8,62.2,123.6,136.7,169.2,216.1c15.3,29,30,26.7,41.8,44.8
				c10.9,16.6,19.4,39.4,33.3,52.6c20.8,19.7,49.6,24.7,76.6,26.2c170,9.4,347.4-17.2,511.3-70.9c6-2,6.4-6.3,11.8-10.1
				c-10.2-7.6-20.8-15.4-31.6-23.4c-177.7-11.1-357.9-24.2-524.3-87C1099.7,1504.6,1034.9,1470.9,971.3,1435.6z"/>
			<g>
				<g>
					<path class="st10" d="M1669.7,1398c0.3-3.8-2.4-18.6-6.2-20.1c-20-7.9-43.2,2.7-64.4-1.8c-27.6-5.9-49.1-16.8-74.5-26.7
						c-22.3-8.7-33.6,0.5-45.9,11c-2.3,2-4.5,4.8-1,7.6c1.5,1.2,3.6,1.9,5.6,2.2c9.9,1.2,19.9,2.4,29.8,3.6
						c-10.2,5.6-18.8,12.6-25.3,20.5c-3.7,4.5-6.1,11.5,2.7,15.5c1.6,0.7,3.3,1.2,5.1,1.5c44.7,7.6,83.3-5.8,124.2-11.3l-0.5,0.5
						c-5.3,5.2,3.4,13.9,13.2,13.1c13.5-1.1,25.8-5,34.6-11.3C1668.6,1401.1,1669.6,1399.6,1669.7,1398z"/>
					<path class="st6" d="M1547.5,1247.9c4.6-6.1,13.9-12.3,18.7-6.3c1.7,2.2,1.9,5.1,1.9,7.9c0.6,35.9-6.3,71.8-20,104.9
						c22.1-76.4,63-147.2,118.2-204.4c17.6-18.2,37.5-35.6,61.9-42.2c2.7-0.7,5.5-1.3,8.1-0.2c4.6,1.9,5.6,8,5.5,13
						c-0.6,31.1-15,60-29.5,87.4c-23.8,44.8-48.8,89-75.1,132.4c7.4-12.2,15-24.7,26-33.9c11-9.2,26.2-14.6,39.8-10.3
						c-5.6,23.4-14.7,45.9-27,66.5c-3.4,5.7-7.2,11.4-12.6,15.4c-5.3,3.8-11.7,5.6-18,7.2c-33.6,8.2-68.7,10.8-103.1,7.5
						c-12.1-1.2-35.1-4.6-41.7-17.1c-5.3-10.1,1.9-26,4.4-36.4C1513.2,1306.3,1527.2,1275.2,1547.5,1247.9z"/>
				</g>
				<path class="st8" d="M1700.7,1154.2c1.4-2.4-2.3-4.6-3.7-2.2c-20,33.8-39.6,67.9-58.6,102.3c-0.2,0.1-0.5,0.3-0.7,0.4
					c-1.1,0.6-1.3,1.7-0.9,2.5c-5.7,10.3-11.4,20.7-17,31.1c-0.3-19,2.5-37.9,8.3-56.1c0.9-2.7-3.3-3.8-4.2-1.2
					c-6.8,20.9-9.5,42.9-8.2,64.8c-6.3,11.6-12.5,23.3-18.6,35c-3.9,7.4-7.7,14.7-11.5,22.1c-2.9-14.7-3.6-29.6-2-44.6
					c0.3-2.8-4.1-2.8-4.3,0c-1.8,16.9-0.7,34,3.2,50.6c0,0,0,0,0,0.1c-4.1,8-8.2,16-12.3,24.1c-1.3,2.5,2.5,4.7,3.7,2.2
					c7.6-15,15.3-30,23.1-44.9c0.6,0.7,1.6,1.1,2.7,0.6c14.6-6.5,28-15.3,39.7-26.2c2.1-1.9-1-5-3.1-3.1
					c-11.1,10.3-23.6,18.6-37.3,24.9c6.6-12.6,13.3-25.2,20.1-37.8c0.6-0.3,1.1-0.9,1-1.9c0,0,0,0,0-0.1
					c7.1-13.2,14.3-26.3,21.5-39.3c20.3-11.1,37.8-26.3,51.8-44.8c1.7-2.2-2.1-4.4-3.7-2.2c-12,15.9-27,29.3-44,39.6
					c8.4-15.1,16.9-30.2,25.5-45.2C1680.9,1188,1690.7,1171,1700.7,1154.2z"/>
				<path class="st8" d="M1545.8,1262.5c-7.2,20.6-12.6,41.7-16.1,63.2c-0.4,0.6-0.7,1.1-1.1,1.7c-0.7,1-0.3,2,0.4,2.6
					c-1.1,7.2-2,14.3-2.7,21.5c-2.3-9.2-4.9-18.4-7.8-27.5c-0.8-2.7-5-1.5-4.2,1.2c3.6,11.4,6.8,22.9,9.5,34.5
					c0.2,1,0.9,1.4,1.6,1.5c-0.6,7.6-0.9,15.2-1,22.8c0,2.8,4.3,2.8,4.3,0c0.3-19.1,2-38,5.1-56.8c4.1-6.1,9-11.5,14.6-16.4
					c2.1-1.8-1-4.9-3.1-3.1c-3.6,3.1-6.8,6.4-9.8,10c3.5-18.4,8.3-36.5,14.5-54.2C1550.9,1261,1546.7,1259.9,1545.8,1262.5z"/>
				<path class="st8" d="M1668.9,1328.9c-7.6,9.3-14.4,19.1-20.5,29.4c-0.2-7.9,0.8-15.8,2.9-23.5c0.7-2.7-3.4-3.8-4.2-1.2
					c-2.7,9.6-3.6,19.4-2.9,29.3c0,0.6,0.3,1.1,0.7,1.4c-2.3,4.3-4.5,8.6-6.6,13c-1.2,2.5,2.6,4.7,3.7,2.2c8-17,18-33,29.9-47.6
					C1673.7,1329.9,1670.7,1326.8,1668.9,1328.9z"/>
			</g>
			<g>
				
					<rect x="1575.5" y="347.2" transform="matrix(0.9803 0.1975 -0.1975 0.9803 139.6653 -301.7965)" class="st10" width="14.5" height="404.1"/>
				<g>
					<path class="st18" d="M1349.3,678.8c1.9-6.1,2.7-12.5,2.5-18.9c-0.1-3.8-0.7-7.8-3.1-10.7c-2.5-2.9-7.3-3.9-10-1.3
						c-1.5,1.5-2,3.7-2.4,5.9c-2.1,11.5-3,23.2-2.8,34.9c-15-3.5-32.4-6.5-44.4,3.1c-3.3,2.6-6.1,6.7-5.5,10.9
						c0.4,2.5,2,4.8,2.6,7.3c1.2,5.4-2.3,10.8-2.2,16.3c0.2,5.6,4.2,10.5,9.1,13.1c4.9,2.6,10.6,3.3,16.2,3.5
						c7.5,0.4,14.9,0.1,22.4-0.8c5.7-0.7,11.4-1.8,16.4-4.6c5-2.8,9.2-7.5,10.2-13.1c1.7-10-5.9-15.3-10.1-23
						C1344,693.7,1347,686.4,1349.3,678.8z"/>
					<path class="st10" d="M1339.7,727.4c-15.5,1.5-31.5,1.8-46-3.7c-3-1.1-6.1-2.7-8.6-4.7c-0.6,2.3-1.2,4.7-1.2,7
						c0.2,5.6,4.2,10.5,9.1,13.1s10.6,3.3,16.2,3.5c7.5,0.4,14.9,0.1,22.4-0.8c5.7-0.7,11.4-1.8,16.4-4.6c2.7-1.5,5.1-3.5,6.9-5.9
						C1350.4,728.8,1343.6,727.1,1339.7,727.4z"/>
					<g>
						<g>
							<path class="st10" d="M1613.4,534.2c-3.9-6.5-3.5-14.6-2.8-22.2c-5.9-0.1-12-0.3-17.6-2c-5.7-1.7-11.1-5.3-13.6-10.7
								c-0.8-1.7-1.3-3.8-0.8-5.6c0.9-3.2,4.5-4.7,7.7-5.5c7.6-1.9,15.6-1.9,23.2-0.1c1.7,0.4,3.4,0.9,5.2,1
								c2.4,0.1,4.8-0.8,7.1-1.4c7-1.8,15.3-1.5,20.2,3.7c3.2,3.4,4.3,8.2,5.3,12.8c0.8,3.7,1.6,7.4,2.4,11.2
								c0.7,3.3,1.4,6.7,0.4,10c-1.1,3.4-3.9,6-6.5,8.3c-3,2.6-6,5.3-9.7,6.8C1626.4,543.8,1617.7,541.3,1613.4,534.2z"/>
							<path class="st10" d="M1768.2,765.4c-34.9,8.9-72.5,11.3-106.5-0.7s-63.5-40.3-70.1-75.7c-3.4-18.2-0.8-36.9,1.8-55.2
								c3.2-22.3,6.3-44.6,9.5-67c1.7-11.7,3.5-23.9,10.8-33.2c7.3-9.3,21.8-14,31.1-6.7c-1.1,22.3-1.6,46.6,12,64.3
								c15.3,19.9,43.7,24.6,68.6,21.5s48.8-12.5,73.8-14.7c25-2.2,53.4,5.1,66.2,26.7c14.2,24,5.3,69.5-9.4,91.7
								C1838.3,743.2,1797.5,757.9,1768.2,765.4z"/>
							<path class="st19" d="M1922.5,635.1c-16.6-33.9-46.3-59.7-82.1-71.8l-4.8-1.6c0,0-292,142.4-489.5,138.9v36.7
								c0,0,47.4,1.7,78,24.4c30.6,22.7,134.5,80.6,266.1-25.9c0,0-155.3,332.6-131.1,677.8c0,0-91,30.2-84.8,38.5
								c6.2,8.3,127.4-4.9,127.4-4.9l-4.7-41.1c0,0,27.2-22.5,46.1-119l136.3-170.6l28.4-0.5c0,0,76.1,215.7,75.8,277.6
								c0,0-60.4,29.3-49,28.6s77.3,0.3,77.3,0.3v-22.5c0,0,38.2-42.4,9.9-114c0,0,23.4-20.5,22.6-103.4l19.4,2.4
								C1963.8,1184.9,2044.4,884.7,1922.5,635.1z"/>
							<path class="st10" d="M1769.7,614c9.7,11.6,16.7,25.2,26.2,37c11.7,14.4,27.5,25.9,45.4,30.9s37.9,3.4,54-5.9
								c13.4-7.8,23.4-20.2,30.6-34.1c-1.1-2.3-2.2-4.6-3.3-6.8c-16.6-33.9-46.3-59.7-82.1-71.8l-4.8-1.6c0,0-32.8,16-83.8,37.1
								C1758.6,602.6,1764.7,608.1,1769.7,614z"/>
							<path class="st19" d="M1752.9,597.8c18.4,1.1,36.4,9.3,49.2,22.6c8.2,8.5,14.3,18.9,22.5,27.3c17.1,17.6,45.7,25.3,67.3,13.6
								c14.5-7.9,23.9-23.1,28.3-39c3.3-12,3.9-25-0.6-36.6c-4.5-11.6-14.8-21.3-27.1-22.9c-1.1-0.1-2.3-0.2-3.4,0.2
								c-1.2,0.5-2.1,1.5-3,2.5c-16.4,18.3-44.2,25.2-67.2,16.7c-13.3-4.9-27.6-15-42.5-10c-4.9,1.7-9.4,5.6-13.2,9.1
								C1762.3,582.2,1750,597.7,1752.9,597.8z"/>
							<path class="st10" d="M1866,988.1c39.2-3.1,81-10.1,124-22.9c0.6-75.2-7.4-162-34.5-247.4c-3.3,52.7-15.7,104.8-36.8,153.1
								C1901.7,910,1878.9,948,1866,988.1z"/>
							<path class="st10" d="M1616.7,1014.8c1.7-1.1,2.4-3.1,3.1-5.1c31.3-98.8,62.6-197.7,93.9-296.5
								c-80.3,53.8-185.5,71.9-276.9,41.5c0.2,5.5,0.7,11,1.6,16.4c41.8,24.9,136.1,58.4,251.9-35.3c0,0-53.7,115.1-93,280.2
								c5-0.1,10.1-0.2,15.1-0.3C1613.9,1015.7,1615.4,1015.6,1616.7,1014.8z"/>
							<path class="st18" d="M1450.9,691.6c-36.3,6.2-71.9,9.7-104.8,9.1v36.7c0,0,47.4,1.7,78,24.4c3.7,2.7,8.4,6,14.1,9.4
								C1433.9,744.2,1438.2,715.7,1450.9,691.6z"/>
							<path class="st20" d="M1989.9,965.1c-179.9,53.9-339.3,5.4-377.5-8.1c-34.5,124.9-64.9,289.3-53.2,456.5
								c0,0-91,30.2-84.8,38.5c6.2,8.3,127.4-4.9,127.4-4.9l-4.7-41.1c0,0,27.2-22.5,46.1-119l136.3-170.6l28.4-0.5
								c0,0,76.1,215.7,75.8,277.6c0,0-60.4,29.3-49,28.6s77.3,0.3,77.3,0.3v-22.5c0,0,38.2-42.4,9.9-114c0,0,18.6-15.9,22.6-99.2
								l19.3-1.8C1963.8,1184.9,1989,1091.3,1989.9,965.1z"/>
							<path class="st10" d="M1840,989.6c0.1,1.7,0.2,3.3,0.2,5c0.6,15.4,0,30.9-1.9,46.3c-2.5,20.7-8.5,43.1-25.6,55
								c-7.7,5.3-17,8.1-24.2,14c-2.1,1.8-4,4-5.5,6.5l24.8-0.5c0,0,7.4,21,17.6,51.7c7.2,1.2,14.3,3.3,21.4,5.1
								c31.9,8.4,64.7,13.1,97.6,14l19.3-1.8c0,0,25.1-93.6,26.1-219.7C1937.4,980.9,1886.6,987.9,1840,989.6z"/>
							<path class="st18" d="M1665.5,1178.9c-32.4-6.1-63.6-17-94.1-29.5c-12.4,83.3-18.5,173.3-12.1,264.2c0,0-91,30.2-84.8,38.5
								c6.2,8.3,127.4-4.9,127.4-4.9l-4.7-41.1c0,0,27.2-22.5,46.1-119l82.5-103.3C1705.6,1184.5,1685.3,1182.6,1665.5,1178.9z"/>
							<path class="st10" d="M1646.1,1283.4c-8,2.8-16.5,4.3-24.9,4c-11-0.4-21.7-3.7-32.2-7.1c3.8,14.1,18.3,23.4,32.9,24.6
								c6.1,0.5,12.1-0.2,18-1.6c1.2-5.2,2.3-10.6,3.4-16.3L1646.1,1283.4z"/>
							<path class="st10" d="M1718.9,1192.2l6.8-8.5c-20.1,0.7-40.4-1.1-60.2-4.8c-32.4-6.1-63.6-17-94.1-29.5
								c-0.2,1.3-0.4,2.6-0.6,3.9c21.6,17.2,47.9,28.3,75,34.1C1669.7,1192.5,1694.4,1193.6,1718.9,1192.2z"/>
							<path class="st18" d="M1944.5,1186.7c-32.9-0.9-65.8-5.6-97.6-14c-7-1.9-14.2-3.9-21.4-5.1c22.5,67.8,58.5,183.3,58.2,225.9
								c0,0-60.4,29.3-49,28.6s77.3,0.3,77.3,0.3v-22.5c0,0,38.2-42.4,9.9-114C1921.9,1285.8,1944.5,1266.1,1944.5,1186.7z"/>
							<path class="st10" d="M1926.1,1280.5c-2.1,1.2-4.4,2.2-6.7,3.1c-10,3.7-22.1,3.4-30.6-3.1c6.2,9,16.5,14.7,27.3,16.3
								c3.3,0.5,6.6,0.6,9.8,0.4c-1.2-3.7-2.5-7.5-4-11.3C1921.9,1285.8,1923.6,1284.4,1926.1,1280.5z"/>
							<path class="st10" d="M1944.5,1186.7c-32.9-0.9-65.8-5.6-97.6-14c-7-1.9-14.2-3.9-21.4-5.1c0.7,2.2,1.5,4.5,2.3,6.9
								c36,18,76.2,27.6,116.4,27.8C1944.4,1197.3,1944.5,1192.1,1944.5,1186.7z"/>
							<g>
								<path class="st18" d="M1753.3,506.7c-1.4,1.5-40.6,43.7-10.3,46.7c0,0-1.9,49.4,79.6,39.2c0,0,37.1,3.7,45.6-46.4
									S1753.3,506.7,1753.3,506.7z"/>
								<path class="st10" d="M1770.7,575c-9,2.7-18.4,4.4-27.8,5.1c-1.9,3.6,2.2,7.4,5.9,9.2c18.5,8.7,41.7,7.4,58.2-4.7
									s24.7-34.9,18.5-54.3c-0.5-1.5-1.3-3.2-2.8-3.6c-0.8-0.2-1.7,0.1-2.5,0.3c-3.4,1-6.9,2.1-10.3,3.1c-2.1,8.9-5,17.5-8.7,25.8
									c-3.3,7.4-8.5,15.5-16.6,16.4c1.8-0.2-6.9-16.8-8-18c-3.4-3.8-11.9-10.9-17.1-7.2c-6.6,4.5,0.3,8.2,3.6,10.6
									C1768.4,561.6,1772.5,568.1,1770.7,575z"/>
								<path class="st10" d="M1752,546.8c-6.2-0.3-12.3,1.1-18.2,2.9c1.6,1.7,4.1,3,7.9,3.5c3-1.4,6-3,8.9-4.7
									C1751.2,548.1,1751.9,547.6,1752,546.8z"/>
								<path class="st10" d="M1753.3,506.7c-0.2,0.3-1.6,1.7-3.5,4c3.1,2.7,7.1,4.5,11.1,5.6c6,1.6,12.3,1.9,18.4,3.3
									c19,4.3,33.9,18.7,47,33c3,3.2,5.9,6.5,9.5,9.1c7.3,5.3,16.2,6.9,25.3,7c3.1-5.9,5.6-13.3,7.2-22.6
									C1876.7,496,1753.3,506.7,1753.3,506.7z"/>
								<path class="st6" d="M1788.5,516c7.8,1.9,15.8,4,22.3,8.7c6.5,4.7,11,11.6,16.9,17c7,6.5,15.8,10.7,24.5,14.7
									c6.4,3,15,5.6,19.5,0.2c4.8-5.7,0.1-14.8,2.9-21.8c1.1-2.9,3.4-5.1,5.8-7.1c12.1-10.4,27-17.2,39.2-27.5
									c12.2-10.3,21.8-26.2,18.1-41.7c-3.4-14.2-17-23.7-30.8-28.6c-31-11.2-66.2-5.7-95.7,8.8c-12.4,6.1-24.2,13.9-32.4,25
									c-4.4,6-7.5,12.7-10.9,19.3c-2.8,5.4-18.2,14.8-19.8,20.6C1744.5,516.1,1779.3,513.7,1788.5,516z"/>
								<path class="st10" d="M1912.8,432.4c-0.2,0.1-0.4,0.2-0.5,0.4c-3.2,2.3-6.3,5.2-7.2,9c-1.5,6.3,3.4,12.4,8.7,16.1
									c7.2,4.9,15.9,7.3,24.6,7.2c0-2.1-0.3-4.3-0.8-6.4C1934.6,446.4,1924.3,437.7,1912.8,432.4z"/>
								<path class="st11" d="M1944.2,428.4c4.1-0.5,8.5-0.5,11.9,1.9c5.3,3.6,5.6,11.9,2.1,17.2c-3.6,5.3-10,8-16.3,9.1
									c-8.9,1.6-25-2.1-25.7-13.7C1915.5,432.2,1936.7,429.2,1944.2,428.4z"/>
								<path class="st21" d="M1879.3,537.7c-11.6-2.8-22.5-7.6-32.3-14.3c-9.8-6.7-18.5-14.8-28.5-21.2
									c-18.7-12-41.4-16.9-63.4-14.2c-2,0.2-2,3.4,0,3.1c23.5-2.8,47,3.1,66.3,16.9c9.2,6.5,17.5,14.2,27,20.2
									c9.2,5.9,19.4,10,30,12.6C1880.5,541.2,1881.3,538.2,1879.3,537.7z"/>
								<path class="st21" d="M1886.4,520.3c-11.4-1.9-22.2-5.9-31.9-12.2c-9.7-6.2-17.3-15-26.5-21.8
									c-16.4-12.1-37.1-16.7-57.1-13.6c-2,0.3-1.1,3.3,0.8,3c22.6-3.5,44.4,3.8,61.5,18.8c7.5,6.6,14.7,13.5,23.5,18.5
									c9,5.2,18.8,8.6,29,10.3C1887.6,523.7,1888.4,520.7,1886.4,520.3z"/>
								<path class="st21" d="M1894.9,510.5c-12.2,0.2-22.1-6.8-30.5-14.8c-7.9-7.6-15.4-15.6-24-22.3c-15.7-12.3-34.7-21-55.1-18.9
									c-2,0.2-2,3.4,0,3.1c23.5-2.5,44.3,9.7,61.1,25c14.1,12.8,27.4,31.5,48.5,31.1C1896.9,513.6,1896.9,510.4,1894.9,510.5z"/>
								<path class="st21" d="M1915.1,501.4c-45.5-1.6-63-62.9-110.1-60.2c-2,0.1-2,3.3,0,3.1c46.5-2.6,64.3,58.7,110.1,60.2
									C1917.1,504.6,1917.1,501.4,1915.1,501.4z"/>
								<path class="st21" d="M1934.2,495.6c-10.2-4.8-19.9-10.8-28.6-18c-8.7-7.2-15.9-15.6-23.4-24c-13.6-15.3-32-24.3-52.7-23.9
									c-2,0-2,3.2,0,3.1c10.8-0.2,21.4,2.2,31,7.2c9.9,5.2,17.2,13.1,24.4,21.5c13.3,15.5,29.2,28,47.7,36.7
									C1934.4,499.2,1936,496.5,1934.2,495.6z"/>
								<path class="st21" d="M1937.2,481.8c-7.4-4.3-14.8-8.6-21.5-14c-7.1-5.6-12.3-12.3-17.2-19.8c-3.9-6-8-11.8-13.9-16.1
									c-6.2-4.6-13.6-7.3-20.8-10c-1.9-0.7-2.7,2.3-0.8,3c8.1,3,16.5,6.2,22.9,12.1c6.1,5.6,9.8,13.2,14.7,19.8
									c9,12.3,22.1,20.2,35,27.7C1937.4,485.5,1938.9,482.8,1937.2,481.8z"/>
							</g>
							<path class="st10" d="M1422.5,749.6c-24.7-9.7-51-23-76.3-21.3v9c0,0,47.4,1.7,78,24.4c0.4,0.3,0.9,0.7,1.4,1c0,0,0,0,0.1,0
								c0.5,0.3,1,0.7,1.5,1c0,0,0,0,0.1,0c0.5,0.4,1,0.7,1.6,1.1c0,0,0,0,0.1,0c0.5,0.4,1.1,0.7,1.7,1.1c0,0,0,0,0.1,0
								c0.6,0.4,1.2,0.8,1.8,1.2c0,0,0,0,0,0c0.6,0.4,1.2,0.8,1.9,1.2c0,0,0,0,0,0c0.6,0.4,1.3,0.8,2,1.2c0,0,0,0,0,0
								c0.7,0.4,1.4,0.8,2.1,1.3c0,0,0,0,0,0c-0.9-5.4-1.4-10.9-1.6-16.4C1432,753.1,1427.2,751.4,1422.5,749.6z"/>
						</g>
						<path class="st22" d="M1627,1349.5c-12.9,5.1-27.3,7.1-41.3,6.5c-6.8-0.3-13.8-1.2-20.1-3.7c-3.1-1.2-6.1-2.9-8.9-4.7
							c0.2,21.9,1,43.9,2.5,66c0,0-91,30.2-84.8,38.5c6.2,8.3,127.4-4.9,127.4-4.9l-4.7-41.1C1597.1,1406,1611.7,1393.9,1627,1349.5
							z"/>
						<path class="st10" d="M1558.9,1408.8c0.1,1.6,0.2,3.2,0.3,4.8c0,0-91,30.2-84.8,38.5c6.2,8.3,127.4-4.9,127.4-4.9l-3.9-34.2
							c-0.3,0.1-0.6,0.1-0.8,0.2C1584.3,1415.8,1571.2,1413.5,1558.9,1408.8z"/>
						<path class="st10" d="M1902.4,1402c-7.3-1-14.3-3.7-20.4-7.7c-9.9,4.8-57.5,28.4-47.3,27.7c11.4-0.8,77.3,0.3,77.3,0.3v-19.9
							C1908.8,1402.6,1905.6,1402.5,1902.4,1402z"/>
						<path class="st22" d="M1883.2,1363.4c-1-0.2-1.9-0.5-2.8-0.9c2.2,12.3,3.4,22.9,3.4,30.9c0,0-0.6,0.3-1.8,0.9
							c6.1,4.1,13.2,6.7,20.4,7.7c3.2,0.4,6.4,0.5,9.6,0.3v-2.5c0,0,14.7-16.3,19.1-45.7c-10.6,3.9-21.5,6.9-32.5,8.9
							C1893.5,1363.9,1888.2,1364.6,1883.2,1363.4z"/>
						<path class="st10" d="M1618.6,455.6c-13.8-7.9-32.7-5.6-44.3,5.3c-3.6,3.4-6.6,7.8-7.6,12.7c-0.7,3.4-0.4,6.8,0,10.3
							c1,7.5,2.8,15,6.6,21.5c3.8,6.5,9.8,12,17.1,13.9c4.6,1.2,9.9,1.2,13.2,4.7c3.9,4.1,3,11.4,7.5,14.9c3.1,2.4,7.7,1.9,10.9-0.3
							c3.2-2.1,5.3-5.6,7.1-9C1640.5,507.1,1644.2,470.2,1618.6,455.6z"/>
					</g>
					<path class="st10" d="M1873.5,635.1c-11.2,0.7-23,1.3-33.5-3.2c-10.5-4.6-17.3-14.2-26-21.3c-15.8-12.8-35.8-19.5-56.2-19.1
						c-2,0-2,3.2,0,3.1c23.4-0.4,44.9,8.8,61.5,25c6.8,6.7,13.5,13.4,22.8,16.4c10.1,3.3,20.9,2.8,31.3,2.2
						C1875.5,638.1,1875.5,635,1873.5,635.1z"/>
					<path class="st10" d="M1909.8,598.9c-0.5,4.6-1.9,8.8-4.3,12.7c-1,1.7,1.7,3.3,2.7,1.6c2.7-4.4,4.2-9.2,4.7-14.3
						C1913.1,596.9,1910,596.9,1909.8,598.9z"/>
					<path class="st10" d="M1670.9,716.5c-65.2,33.5-143.2,39-212.5,15.2c-1.9-0.7-2.7,2.4-0.8,3c70.1,24.1,149,18.3,214.9-15.6
						C1674.3,718.3,1672.7,715.6,1670.9,716.5z"/>
					<path class="st10" d="M1728.6,695.7c-7.1,4.7-14.5,8.7-22.3,11.9c-1.8,0.8-1,3.8,0.8,3c8.1-3.4,15.8-7.4,23-12.2
						C1731.8,697.2,1730.3,694.5,1728.6,695.7z"/>
					<path class="st10" d="M1792.9,950c-47.5-51.3-72.6-121.6-68.5-191.4c0.1-2-3-2-3.1,0c-4.2,70.7,21.4,141.7,69.4,193.6
						C1792.1,953.7,1794.3,951.5,1792.9,950z"/>
					<path class="st10" d="M1770.5,950.5c-7.6-4.3-14.6-9.5-21-15.5c-1.5-1.4-3.7,0.8-2.2,2.2c6.6,6.1,13.8,11.5,21.7,16
						C1770.7,954.2,1772.2,951.5,1770.5,950.5z"/>
					<path class="st10" d="M1865.9,949.2c-4.1,1.5-8.3,2.9-12.4,4.4c-1.9,0.7-1.1,3.7,0.8,3c4.1-1.5,8.3-2.9,12.4-4.4
						C1868.6,951.6,1867.8,948.6,1865.9,949.2z"/>
					<path class="st23" d="M1633.9,973.1c-0.2-0.5-0.8-0.8-1.4-0.8c-0.3,0-0.5,0-0.8,0c-2,0-2,3.2,0,3.1c-1.2,0-4.9,18.3-5.4,20.2
						c-1.7,6.7-3.4,13.4-5.1,20.1c-2.5,9.7-4.9,19.4-7.4,29c0,0,0,0,0,0c-8.1-10.5-4.6-25.4-1.6-37.1c3.3-13.1,8.1-25.8,14.2-37.8
						c0.9-1.8-1.8-3.4-2.7-1.6c-7.1,14-12.5,28.8-15.8,44.1c-2.5,11.7-4.1,24.6,3.7,34.6c0.5,0.6,1.1,0.7,1.6,0.4
						c-0.7,2.8-1.4,5.7-2.2,8.5l-20.5,80.4c-0.5,2,2.5,2.8,3,0.8c7.3-28.5,14.5-56.9,21.8-85.4c3.6-14.1,7.2-28.1,10.8-42.2
						c1.8-7,3.6-14.1,5.4-21.1C1632.6,984.2,1636.1,977.4,1633.9,973.1z"/>
					<path class="st23" d="M1787.4,1010.7c-15.6,9.7-33.5,16.6-52.1,14.8c-17.5-1.8-32.9-11.6-40.5-27.4c4.2,2.1,8.9,3,13.8,3.4
						c9.5,0.8,19.2,0.8,28.7,1.1c10.2,0.4,20.3,0.7,30.5,1.1c3.2,0.1,14.3,2.6,14.2-3c0-2-3.2-2-3.1,0c0,0.1-40.8-1.2-44.6-1.3
						c-7.2-0.3-14.5-0.4-21.7-0.8c-7.2-0.3-14.5-1.2-20.4-5.8c-1.6-1.2-3.8,1-2.2,2.2c0.1,0.1,0.3,0.2,0.4,0.3c0,0.2,0,0.3,0,0.5
						c-1.4,9.4-2.7,18.8-4.1,28.1c-1.2,8.3-3.3,17-2.7,25.4c1.1,15.1,14.9,23.9,28,28.4c8,2.7,16.3,4.1,24.6,5.4
						c6.6,1,13.8,2.5,20.1-0.4c6.3-2.9,10.1-9.6,13.8-15.2c5.1-7.9,9.6-16.1,13.6-24.5c0.9-1.8-1.8-3.4-2.7-1.6
						c-3.2,6.8-6.7,13.4-10.6,19.8c-3.4,5.6-6.9,12.3-12,16.5c-6.9,5.8-16.7,3.1-24.8,1.9c-6.6-1-13.2-2.3-19.5-4.3
						c-7-2.2-13.9-5.5-19.4-10.5c-6.6-5.9-8.5-13.4-7.8-22c1.2-14,3.7-28,5.9-41.9c7.8,14.7,21.9,24.5,38.7,27.1
						c20.4,3.2,40.4-4,57.5-14.7C1790.7,1012.3,1789.1,1009.6,1787.4,1010.7z"/>
					<path class="st23" d="M1863.8,1101.2c-18.2,0.6-36.4,0.7-54.6,0.2c7.5-33.5,15-66.9,22.5-100.4c0.4-2-2.6-2.8-3-0.8
						c-7.5,33.7-15.1,67.4-22.6,101.1c-18.3-0.5-36.6-1.6-54.9-3.3c-2-0.2-2,3,0,3.1c18.1,1.7,36.2,2.7,54.3,3.3
						c0.1,1.6,2.7,2.1,3.1,0.3c0-0.1,0-0.1,0-0.2c18.4,0.5,36.9,0.4,55.3-0.2C1865.8,1104.3,1865.8,1101.2,1863.8,1101.2z"/>
				</g>
				
					<rect x="1452.8" y="258" transform="matrix(0.9969 7.834252e-02 -7.834252e-02 0.9969 30.85 -125.4225)" class="st3" width="322.3" height="145"/>
				<polygon class="st10" points="1780.1,273.4 1477.6,392.5 1768.9,415.4 				"/>
			</g>
			<g>
				<path class="st6" d="M893.6,1437.6c-27-33.2-48.2-72-55.6-114.2c-1.9-10.6-2.8-21.9,1.5-31.8c4.3-9.9,15.3-17.5,25.7-14.7
					c9,2.5,14.4,11.4,18.8,19.6c24.4,46.7,42,96.7,59.5,146.4c-5.6-29.5-11.3-60-4.4-89.2c1-4.3,2.9-9.2,7.1-10.6
					c6.7-2.2,11.9,5.9,14.3,12.5c12.5,35.3,20.6,72.1,24.1,109.4c3.7-23.3,17.5-44.9,37.1-58c7.4-4.9,18.8-8,23.8-0.6
					c1.6,2.3,2,5.2,2.2,8.1c1.1,19.1-9.5,36.5-16.1,54.4c-11.2,30.5-11,65,0.7,95.3c-4.7-12.2-27.6-20.1-37.4-27.3
					c-9.3-6.9-16.3-16.3-24.8-24.1C943.7,1488.4,916.5,1465.7,893.6,1437.6z"/>
				<path class="st8" d="M919.3,1458.8c-6.9-10.9-13.2-22.1-19-33.5c0.1-0.2,0.2-0.4,0.2-0.7c1.4-16.9,1.8-27.5,1.2-31.2
					c-0.3-2-3.2-2-3.1,0c0.1,8.9-0.2,17.8-0.8,26.7c-7.1-14.6-13.3-29.6-18.5-44.9c0,0,0,0,0,0c0.8-14,2.1-28,3.9-42
					c0.3-2-2.9-2-3.1,0c-1.5,11.3-2.6,22.7-3.4,34.1c-8.1-25.3-13.7-51.5-16.5-78c-0.2-2-3.4-2-3.1,0c2.9,26.4,8.3,52.4,16.3,77.6
					c-6.4-8.6-12.4-17.5-17.8-26.8c-1-1.7-3.7-0.2-2.7,1.6c7,11.9,14.8,23.3,23.4,34c5,14.7,10.9,29.2,17.6,43.2
					c-10.4-8.9-15.8-22.8-24.6-33.1c-1.3-1.5-3.5,0.7-2.2,2.2c10.3,12.1,15.9,28.4,29.8,37c6,12.1,12.7,23.9,19.9,35.4
					C917.7,1462,920.4,1460.5,919.3,1458.8z"/>
				<path class="st8" d="M974.9,1513.5c-2.1-6.1-4-12.3-5.9-18.4c0.3-0.3,0.5-0.6,0.6-1.1c1-11,2.6-21.8,5-32.6c0.4-2-2.6-2.8-3-0.8
					c-2,9.2-3.5,18.4-4.5,27.7c-3.2-11.2-5.9-22.6-8.3-34c0.1-0.1,0.2-0.3,0.2-0.5c3.5-11.2,7-22.5,10.5-33.7c0.6-1.9-2.4-2.8-3-0.8
					l-9,28.8c-5.1-26.4-8.1-53.1-8.9-80c-0.1-2-3.2-2-3.1,0c1.2,38.8,6.8,77.3,16.8,114.7c-3.6-5.5-7.1-11.1-10.3-16.8
					c-1-1.8-3.7-0.2-2.7,1.6c4.9,8.5,10.1,16.8,15.7,24.8c2.2,7.4,4.5,14.8,7,22.2C972.5,1516.3,975.5,1515.5,974.9,1513.5z"/>
				<path class="st8" d="M1023.5,1426.2c-9.2,18.1-15.9,37.3-20,57.1c-3.1-12.6-5.1-25.5-5.9-38.5c-0.1-2-3.3-2-3.1,0
					c0.9,14.8,3.3,29.4,7.1,43.7c0.1,0.4,0.4,0.7,0.7,0.9c-1.5,8.4-2.5,16.8-3.1,25.3c-3.5-13.2-6.2-26.7-8-40.2
					c-0.3-2-3.3-1.1-3,0.8c2.2,16.4,5.6,32.5,10.2,48.4c0.1,0.2,0.2,0.4,0.4,0.6c-0.1,2.9-0.1,5.8-0.1,8.7c0,2,3.2,2,3.1,0
					c-0.1-3.3,0-6.7,0.1-10c4.5-7.7,9.8-14.9,15.9-21.4c1.4-1.5-0.8-3.7-2.2-2.2c-5,5.3-9.5,11-13.4,17.1c0.6-9.8,1.8-19.6,3.6-29.3
					c5.7-6.6,11.4-13.3,17-19.9c1.3-1.5-0.9-3.8-2.2-2.2c-4.5,5.3-9,10.5-13.5,15.8c4.1-18.3,10.4-36.2,19-53.1
					C1027.1,1426,1024.4,1424.4,1023.5,1426.2z"/>
			</g>
			<path class="st24" d="M936.7,1244c-13.4-2.1-25.7-7.6-35.7-16.8c-6.9-6.4-17.3,4-10.4,10.4c11.8,10.8,26.3,18.1,42.2,20.6
				c3.9,0.6,7.8-1,9-5.1C942.8,1249.5,940.6,1244.6,936.7,1244z"/>
			<path class="st24" d="M1155.2,1377.7c-37.5-30-78.4-55.4-122.2-75.3c-8.5-3.9-16,8.7-7.4,12.6c42.5,19.4,82.7,43.9,119.2,73
				c3.1,2.5,7.3,3,10.4,0C1157.8,1385.5,1158.3,1380.1,1155.2,1377.7z"/>
			<path class="st24" d="M1428.6,1623.7c-13-15.5-26.1-30.9-40.1-45.5c-13.7-14.3-28.5-27.3-44.2-39.5c-15.7-12.2-29.8-25-42.6-40.2
				c-12.5-14.9-25.3-29.2-40-41.9c-16.2-14-33.9-26.3-52.8-36.5c-8.3-4.5-15.7,8.1-7.4,12.6c33.5,18.2,61.8,42.6,86.2,71.8
				c12.6,15,25.6,28.5,41.1,40.6c15.6,12.2,30.8,24.6,44.7,38.7c15.8,16,30.3,33.2,44.7,50.3
				C1424.4,1641.2,1434.7,1630.8,1428.6,1623.7z"/>
			<path class="st25" d="M1411.5,1490.4c-9.4,0-9.4,14.6,0,14.6C1420.9,1505.1,1421,1490.4,1411.5,1490.4z"/>
			<path class="st25" d="M1413.5,1514c-9.4,0-9.4,14.6,0,14.6C1422.9,1528.6,1422.9,1514,1413.5,1514z"/>
			<path class="st25" d="M1477.5,1518.1c-1.4-1.3-3.2-2.1-5.2-2.1h-2c-1.9,0-3.8,0.8-5.2,2.1c-0.7,0.7-1.2,1.4-1.5,2.4
				c-0.5,0.9-0.7,1.8-0.6,2.8c0.1,1.9,0.7,3.9,2.1,5.2c1.4,1.3,3.2,2.1,5.2,2.1h2c1.9,0,3.8-0.8,5.2-2.1c0.7-0.7,1.2-1.4,1.5-2.4
				c0.5-0.9,0.7-1.8,0.6-2.8C1479.6,1521.3,1479,1519.4,1477.5,1518.1z"/>
			<path class="st25" d="M1118.5,1425.9c-0.7-0.7-1.4-1.2-2.4-1.5c-0.9-0.5-1.8-0.7-2.8-0.6c-1.9,0.1-3.9,0.7-5.2,2.1
				c-1.3,1.4-2.1,3.2-2.1,5.2v2c0,1.9,0.8,3.8,2.1,5.2c0.7,0.7,1.4,1.2,2.4,1.5c0.9,0.5,1.8,0.7,2.8,0.6c1.9-0.1,3.9-0.7,5.2-2.1
				c1.3-1.4,2.1-3.2,2.1-5.2v-2C1120.7,1429.2,1119.9,1427.2,1118.5,1425.9z"/>
			<path class="st25" d="M1078,1506.1c-9.4,0-9.4,14.6,0,14.6C1087.5,1520.7,1087.5,1506.1,1078,1506.1z"/>
			<path class="st25" d="M1150.6,1588.5c-9.4,0-9.4,14.6,0,14.6C1160,1603.1,1160.1,1588.5,1150.6,1588.5z"/>
			<path class="st25" d="M819.1,1243.4c-6.7,0-6.7,10.5,0,10.5C825.8,1253.8,825.8,1243.4,819.1,1243.4z"/>
			<path class="st25" d="M877.9,1249.3c-6.7,0-6.7,10.5,0,10.5C884.7,1259.7,884.7,1249.3,877.9,1249.3z"/>
			<path class="st25" d="M816.9,1275.1c-1.3-0.7-2.6-1.3-3.9-2c-1.7-0.9-4-0.5-5,1.3c-0.9,1.7-0.5,4.1,1.3,5c1.3,0.7,2.6,1.3,3.9,2
				c1.7,0.9,4,0.5,5-1.3C819.1,1278.4,818.8,1276,816.9,1275.1z"/>
			<path class="st25" d="M995.7,1248.9c-4.7,0-4.7,7.3,0,7.3C1000.4,1256.2,1000.4,1248.9,995.7,1248.9z"/>
			<path class="st25" d="M1103.5,1284.7c-4,0-4,6.3,0,6.3C1107.6,1291,1107.6,1284.7,1103.5,1284.7z"/>
			<path class="st25" d="M1001.5,1382.3c-4.7,0-4.7,7.3,0,7.3C1006.2,1389.6,1006.3,1382.3,1001.5,1382.3z"/>
			<path class="st25" d="M1262.4,1360.7c-2,0.1-3.7,1.6-3.7,3.7v3.9c0,1.9,1.7,3.7,3.7,3.7c2-0.1,3.7-1.6,3.7-3.7v-3.9
				C1266.1,1362.4,1264.4,1360.6,1262.4,1360.7z"/>
			<path class="st25" d="M1270.3,1637.3c-4.7,0-4.7,7.3,0,7.3C1275,1644.6,1275,1637.3,1270.3,1637.3z"/>
			<path class="st25" d="M1354.6,1653c-4.7,0-4.7,7.3,0,7.3C1359.4,1660.3,1359.4,1653,1354.6,1653z"/>
			<path class="st25" d="M1535.1,1633.4c-4.7,0-4.7,7.3,0,7.3C1539.8,1640.7,1539.8,1633.4,1535.1,1633.4z"/>
			<g>
				<g>
					<path class="st10" d="M1889.7,1541.4c1-6.8,0.1-33.1-4.4-35.2c-23.7-10.9-54.5,12-80.2,7.4c-33.5-6-58.6-22.1-88.8-35.8
						c-26.5-12-42.1,6.6-59.2,27.5c-3.2,4-6.5,9.4-2.5,13.8c1.7,1.9,4.1,2.8,6.7,2.9c12.2,0.5,24.4,1,36.7,1.5
						c-13.7,11.8-25.6,25.8-35.1,41.3c-5.4,8.8-9.5,21.8,0.8,27.5c1.9,1,4,1.6,6.1,1.9c54.7,6.2,105.1-24.3,157.2-41l-0.7,0.9
						c-7.5,10.3,1.9,24.5,14.3,21.4c17.1-4.3,33-13.3,45.2-26.2C1887.7,1547.1,1889.2,1544.4,1889.7,1541.4z"/>
					<path class="st6" d="M1745.6,1349.5c5.5-7.4,16.8-14.8,22.6-7.6c2.1,2.6,2.3,6.2,2.3,9.5c0.7,43.2-7.5,86.5-24,126.4
						c26.6-92,75.9-177.3,142.4-246.2c21.1-21.9,45.1-42.9,74.5-50.8c3.2-0.9,6.7-1.5,9.7-0.3c5.6,2.3,6.7,9.6,6.6,15.7
						c-0.7,37.4-18,72.2-35.6,105.3c-28.6,54-58.8,107.1-90.4,159.4c8.9-14.7,18-29.8,31.3-40.8c13.2-11,31.5-17.5,48-12.4
						c-6.7,28.1-17.7,55.2-32.5,80.1c-4.1,6.9-8.7,13.8-15.2,18.5c-6.3,4.6-14,6.8-21.6,8.6c-40.5,9.9-82.7,13-124.2,9
						c-14.5-1.4-42.3-5.6-50.2-20.5c-6.4-12.1,2.2-31.3,5.3-43.8C1704.2,1419.8,1721.1,1382.3,1745.6,1349.5z"/>
				</g>
				<path class="st8" d="M1930.1,1236.6c1.7-2.9-2.8-5.5-4.5-2.6c-24.1,40.7-47.7,81.8-70.6,123.2c-0.3,0.2-0.6,0.3-0.9,0.5
					c-1.3,0.7-1.5,2-1.1,3.1c-6.9,12.5-13.7,25-20.5,37.5c-0.4-22.9,3-45.7,10-67.6c1-3.2-4-4.6-5-1.4c-8.1,25.2-11.5,51.6-9.9,78
					c-7.5,14-15,28-22.4,42.1c-4.7,8.9-9.3,17.8-13.9,26.7c-3.5-17.7-4.3-35.7-2.4-53.7c0.4-3.3-4.9-3.3-5.2,0
					c-2.2,20.4-0.8,40.9,3.9,60.9c0,0,0,0.1,0,0.1c-5,9.6-9.9,19.3-14.8,29c-1.5,3,3,5.6,4.5,2.6c9.2-18.1,18.5-36.1,27.9-54.1
					c0.7,0.8,2,1.3,3.2,0.7c17.6-7.8,33.7-18.5,47.8-31.6c2.5-2.3-1.2-6-3.7-3.7c-13.3,12.4-28.4,22.4-45,29.9
					c8-15.2,16-30.4,24.2-45.5c0.8-0.4,1.3-1.1,1.2-2.2c0,0,0,0,0-0.1c8.5-15.8,17.2-31.6,25.9-47.4c24.4-13.3,45.6-31.7,62.4-53.9
					c2-2.7-2.5-5.3-4.5-2.6c-14.5,19.2-32.5,35.3-53,47.7c10.1-18.2,20.4-36.4,30.7-54.5C1906.2,1277.3,1918.1,1256.9,1930.1,1236.6
					z"/>
				<path class="st8" d="M1743.6,1367.1c-8.6,24.8-15.1,50.3-19.4,76.1c-0.4,0.7-0.9,1.3-1.3,2c-0.8,1.2-0.4,2.4,0.5,3.2
					c-1.3,8.6-2.4,17.3-3.3,25.9c-2.8-11.1-5.9-22.2-9.4-33.1c-1-3.2-6.1-1.8-5,1.4c4.4,13.7,8.2,27.6,11.5,41.6
					c0.3,1.1,1.1,1.7,2,1.8c-0.7,9.1-1.1,18.3-1.2,27.5c0,3.4,5.2,3.4,5.2,0c0.3-23,2.4-45.8,6.1-68.4c5-7.3,10.8-13.9,17.6-19.7
					c2.5-2.2-1.2-5.9-3.7-3.7c-4.3,3.7-8.2,7.8-11.9,12.1c4.2-22.1,10.1-44,17.5-65.3C1749.7,1365.3,1744.7,1364,1743.6,1367.1z"/>
				<path class="st8" d="M1891.8,1447.1c-9.1,11.2-17.3,23-24.6,35.4c-0.2-9.6,1-19,3.5-28.3c0.9-3.2-4.1-4.6-5-1.4
					c-3.2,11.5-4.4,23.4-3.5,35.3c0.1,0.7,0.4,1.3,0.8,1.7c-2.8,5.1-5.5,10.4-8,15.7c-1.4,3,3.1,5.7,4.5,2.6
					c9.6-20.5,21.7-39.8,36-57.4C1897.6,1448.2,1893.9,1444.5,1891.8,1447.1z"/>
			</g>
			<path class="st4" d="M488.9,1332.6c-0.7,0-0.7,1,0,1C489.6,1333.6,489.6,1332.6,488.9,1332.6z"/>
			<path class="st4" d="M579.4,1335.8v2.7c0,0.7,1,0.7,1,0v-2.7C580.4,1335.1,579.4,1335.1,579.4,1335.8z"/>
			<path class="st4" d="M520.9,1319.5c-1.8,0.9-3.6,1.8-5.3,2.7c-0.6,0.3-0.1,1.2,0.5,0.9c1.8-0.9,3.6-1.8,5.3-2.7
				C522,1320.1,521.5,1319.2,520.9,1319.5z"/>
			<path class="st4" d="M441.3,1313.8c-0.8-0.8-1.7-1.4-2.7-1.7c-1-0.5-2.1-0.8-3.2-0.7c-2.2,0.1-4.4,0.8-5.9,2.5
				c-1.5,1.6-2.5,3.6-2.5,5.9v2.7c0,2.1,0.9,4.4,2.5,5.9c0.8,0.8,1.7,1.4,2.7,1.7c1,0.5,2.1,0.8,3.2,0.7c2.2-0.1,4.4-0.8,5.9-2.5
				c1.5-1.6,2.5-3.6,2.5-5.9v-2.7C443.7,1317.6,442.8,1315.3,441.3,1313.8z"/>
			<path class="st4" d="M593.8,1295.1c-1.6-1.5-3.6-2.5-5.9-2.5h-2.7c-2.1,0-4.4,0.9-5.9,2.5c-0.8,0.8-1.4,1.7-1.7,2.7
				c-0.5,1-0.8,2.1-0.7,3.2c0.1,2.2,0.8,4.4,2.5,5.9c1.6,1.5,3.6,2.5,5.9,2.5h2.7c2.1,0,4.4-0.9,5.9-2.5c0.8-0.8,1.4-1.7,1.7-2.7
				c0.5-1,0.8-2.1,0.7-3.2C596.2,1298.8,595.5,1296.6,593.8,1295.1z"/>
			<path class="st4" d="M728.7,1309.2c-0.5-1.1-2-2.1-3.1-2.4c-1.3-0.3-2.9-0.2-4,0.5c-1.1,0.7-2.1,1.8-2.4,3.1
				c-0.2,0.8-0.2,1.5-0.1,2.2c-1.9,1.2-3.1,3.6-2.4,5.9c0.9,2.7,3.6,4.5,6.4,3.7c2.4-0.7,4.5-2.3,5.6-4.6
				C730.1,1314.7,730,1312,728.7,1309.2z"/>
			<path class="st4" d="M601.3,1338.6c-6.7,0-6.7,10.5,0,10.5C608,1349,608,1338.6,601.3,1338.6z"/>
			<path class="st4" d="M759.2,1381.4c-6.7,0-6.7,10.5,0,10.5C766,1391.9,766,1381.4,759.2,1381.4z"/>
			<path class="st4" d="M1342.7,1298.4c-6.7,0-6.7,10.5,0,10.5C1349.5,1308.9,1349.5,1298.4,1342.7,1298.4z"/>
			<path class="st4" d="M1321.3,1343.9c-6.7,0-6.7,10.5,0,10.5C1328.1,1354.4,1328.1,1343.9,1321.3,1343.9z"/>
			<path class="st4" d="M1418.7,1340.1c-0.9-0.9-2.4-1.6-3.7-1.5c-2.8,0.1-5.2,2.3-5.2,5.2v2.7c0,1.3,0.6,2.7,1.5,3.7
				c0.9,0.9,2.4,1.6,3.7,1.5c2.8-0.1,5.2-2.3,5.2-5.2v-2.7C1420.2,1342.5,1419.7,1341.1,1418.7,1340.1z"/>
			<path class="st4" d="M1484.6,1252.9h-8c-2.7,0-5.4,2.4-5.2,5.2c0.1,2.8,2.3,5.2,5.2,5.2h8c2.7,0,5.4-2.4,5.2-5.2
				C1489.7,1255.3,1487.5,1252.9,1484.6,1252.9z"/>
			<path class="st4" d="M670.9,1483.1c-6.7,0-6.7,10.5,0,10.5C677.6,1493.6,677.6,1483.1,670.9,1483.1z"/>
			<path class="st4" d="M794,1493.8h-8c-2.7,0-5.4,2.4-5.2,5.2c0.1,2.8,2.3,5.2,5.2,5.2h8c2.7,0,5.4-2.4,5.2-5.2
				C799.1,1496.2,797,1493.8,794,1493.8z"/>
			<path class="st4" d="M1741.6,1231.5h-13.4c-6.7,0-6.7,10.5,0,10.5h13.4C1748.3,1242,1748.3,1231.5,1741.6,1231.5z"/>
			<path class="st4" d="M1716.8,1301.3c-1.6-2.5-4.5-3.2-7.2-1.9c-1.8,0.9-3.6,1.8-5.3,2.7c-2.4,1.2-3.3,4.9-1.9,7.2
				c1.6,2.5,4.5,3.2,7.2,1.9c1.8-0.9,3.6-1.8,5.3-2.7C1717.3,1307.2,1718.2,1303.6,1716.8,1301.3z"/>
			<path class="st4" d="M1776.4,1322.5c-6.7,0-6.7,10.5,0,10.5C1783.1,1333,1783.1,1322.5,1776.4,1322.5z"/>
			<path class="st4" d="M229.2,1135.1h-5.4c-3.4,0-3.4,5.2,0,5.2h5.4C232.6,1140.3,232.6,1135.1,229.2,1135.1z"/>
			<path class="st4" d="M397,1031.5c-1-1-2.7-1-3.7,0l-2.7,2.7c-1,1-1,2.7,0,3.7c1,1,2.7,1,3.7,0l2.7-2.7
				C398,1034.2,398.1,1032.4,397,1031.5z"/>
			<path class="st4" d="M207.8,1086.9c-3.4,0-3.4,5.2,0,5.2C211.2,1092.1,211.2,1086.9,207.8,1086.9z"/>
			<path class="st4" d="M427.3,1097.6c-3.4,0-3.4,5.2,0,5.2C430.7,1102.9,430.7,1097.6,427.3,1097.6z"/>
			<path class="st4" d="M501.6,1028.1c-2.7,0.9-5.4,1.8-8,2.7c-3.2,1.1-1.8,6.1,1.4,5c2.7-0.9,5.4-1.8,8-2.7
				C506.1,1032.1,504.8,1027.1,501.6,1028.1z"/>
			<path class="st4" d="M1002.8,1054.8h-5.4c-3.4,0-3.4,5.2,0,5.2h5.4C1006.2,1060,1006.2,1054.8,1002.8,1054.8z"/>
			<path class="st4" d="M1040.3,1132.4c-3.4,0-3.4,5.2,0,5.2C1043.6,1137.6,1043.6,1132.4,1040.3,1132.4z"/>
			<path class="st4" d="M1074.5,1160.2c-0.8-1.3-2.3-1.6-3.6-0.9c-1.8,0.9-3.6,1.8-5.3,2.7c-1.3,0.6-1.6,2.4-0.9,3.6
				c0.8,1.3,2.3,1.6,3.6,0.9c1.8-0.9,3.6-1.8,5.3-2.7C1074.8,1163.2,1075.2,1161.4,1074.5,1160.2z"/>
			<path class="st4" d="M1064.4,1081.6c-3.4,0-3.4,5.2,0,5.2C1067.7,1086.8,1067.7,1081.6,1064.4,1081.6z"/>
			<path class="st4" d="M1305.3,1086.9c-3.4,0-3.4,5.2,0,5.2C1308.6,1092.1,1308.6,1086.9,1305.3,1086.9z"/>
			<path class="st4" d="M1388.2,1097.6c-1.4,0.1-2.6,1.1-2.6,2.6v2.7c0,1.4,1.2,2.7,2.6,2.6c1.4-0.1,2.6-1.1,2.6-2.6v-2.7
				C1390.9,1098.9,1389.7,1097.6,1388.2,1097.6z"/>
			<path class="st4" d="M1479.2,1086.9c-3.4,0-3.4,5.2,0,5.2C1482.6,1092.1,1482.6,1086.9,1479.2,1086.9z"/>
			<path class="st4" d="M1321.3,1025.4c-3.4,0-3.4,5.2,0,5.2C1324.7,1030.6,1324.7,1025.4,1321.3,1025.4z"/>
			<path class="st4" d="M1326.7,1137.8c-3.4,0-3.4,5.2,0,5.2C1330,1143,1330,1137.8,1326.7,1137.8z"/>
			<path class="st4" d="M1469.2,1079c-4.5-1.8-8.9-3.6-13.4-5.4c-3.1-1.2-4.5,3.8-1.4,5c4.5,1.8,8.9,3.6,13.4,5.4
				C1471,1085.3,1472.3,1080.2,1469.2,1079z"/>
			<g>
				<path class="st4" d="M1336.2,1028.4C1336.2,1028.4,1336.2,1028.4,1336.2,1028.4C1336.2,1028.4,1336.2,1028.3,1336.2,1028.4
					C1336.2,1028.3,1336.2,1028.3,1336.2,1028.4C1336.2,1028.3,1336.2,1028.3,1336.2,1028.4
					C1336.2,1028.4,1336.2,1028.4,1336.2,1028.4c-0.1-0.1-0.1-0.1-0.1-0.1C1336.1,1028.3,1336.1,1028.3,1336.2,1028.4
					C1336.2,1028.3,1336.2,1028.3,1336.2,1028.4c-0.1-0.1-0.1-0.1-0.1-0.1C1336.1,1028.3,1336.1,1028.3,1336.2,1028.4
					c-0.1-0.1-0.1-0.1-0.1-0.1C1336.2,1028.3,1336.2,1028.3,1336.2,1028.4C1336.2,1028.3,1336.2,1028.3,1336.2,1028.4
					C1336.2,1028.3,1336.2,1028.3,1336.2,1028.4C1336.2,1028.3,1336.2,1028.3,1336.2,1028.4c-0.1-0.1-0.1-0.1-0.1-0.1
					c0-0.1,0-0.1,0-0.1c0-0.2,0-0.1,0,0c0,0,0-0.1,0-0.1c0,0,0,0,0,0c0-0.1,0-0.2,0.1-0.2c0,0.1,0.1-0.1,0.1-0.1
					c0.1-0.1,0.1-0.1,0,0c0,0,0,0,0,0c0,0,0,0,0,0c1.1-0.8,1.6-2.3,0.9-3.5c-0.7-1.1-2.4-1.7-3.6-0.9c-3.4,2.4-3.4,7.2,0,9.6
					c1.2,0.8,2.9,0.2,3.6-0.9C1337.8,1030.6,1337.3,1029.2,1336.2,1028.4z"/>
				<path class="st4" d="M1336.2,1028.3C1336.2,1028.3,1336.2,1028.3,1336.2,1028.3C1336.2,1028.3,1336.2,1028.3,1336.2,1028.3
					C1336.2,1028.3,1336.2,1028.3,1336.2,1028.3C1336.2,1028.3,1336.2,1028.3,1336.2,1028.3
					C1336.2,1028.3,1336.2,1028.3,1336.2,1028.3C1336.2,1028.3,1336.2,1028.3,1336.2,1028.3
					C1336.2,1028.3,1336.2,1028.3,1336.2,1028.3C1336.2,1028.3,1336.2,1028.3,1336.2,1028.3
					C1336.2,1028.3,1336.2,1028.3,1336.2,1028.3C1336.2,1028.3,1336.2,1028.3,1336.2,1028.3
					C1336.2,1028.3,1336.2,1028.3,1336.2,1028.3z"/>
				<path class="st4" d="M1336.2,1028.4C1336.2,1028.4,1336.2,1028.4,1336.2,1028.4C1336.2,1028.4,1336.3,1028.4,1336.2,1028.4z"/>
				<path class="st4" d="M1336.2,1028.1C1336.2,1028.3,1336.2,1028.2,1336.2,1028.1L1336.2,1028.1z"/>
			</g>
			<path class="st4" d="M1484.6,1076.2h-2.7c-1.4,0-2.7,1.2-2.6,2.6c0.1,1.4,1.1,2.6,2.6,2.6h2.7c1.4,0,2.7-1.2,2.6-2.6
				C1487.2,1077.4,1486.1,1076.2,1484.6,1076.2z"/>
			<path class="st24" d="M391.7,857.5l-2.7-2.7c-1-1-2.7-1-3.7,0c-1,1-1,2.7,0,3.7c0.9,0.9,1.8,1.8,2.7,2.7c1,1,2.7,1,3.7,0
				C392.6,860.1,392.7,858.5,391.7,857.5z"/>
			<path class="st24" d="M464.8,894.2c-3.4,0-3.4,5.2,0,5.2C468.2,899.4,468.2,894.2,464.8,894.2z"/>
			<path class="st24" d="M306.9,915.6c-3.4,0-3.4,5.2,0,5.2C310.2,920.8,310.2,915.6,306.9,915.6z"/>
			<path class="st24" d="M424.6,945.1c-1.4,0.1-2.6,1.1-2.6,2.6v2.7c0,1.4,1.2,2.7,2.6,2.6c1.4-0.1,2.6-1.1,2.6-2.6v-2.7
				C427.3,946.3,426.1,945,424.6,945.1z"/>
			<path class="st24" d="M585.1,914.9c-0.9-2.7-1.8-5.4-2.7-8c-1.1-3.2-6.1-1.8-5,1.4c0.9,2.7,1.8,5.4,2.7,8
				C581.1,919.4,586.2,918.1,585.1,914.9z"/>
			<path class="st24" d="M500.9,806.2c-1.8-0.9-3.6-1.8-5.4-2.7c-1.3-0.6-2.8-0.3-3.6,0.9c-0.7,1.2-0.3,2.9,0.9,3.6
				c1.8,0.9,3.6,1.8,5.4,2.7c1.3,0.6,2.8,0.3,3.6-0.9C502.5,808.6,502.2,806.9,500.9,806.2z"/>
			<path class="st24" d="M662.9,867.4c-3.4,0-3.4,5.2,0,5.2C666.2,872.7,666.2,867.4,662.9,867.4z"/>
			<path class="st4" d="M461.4,979.5c-26.7-12.2-54.4-27.1-82.2-25.6c-48.4,2.6-80.8,53-127.3,66.7c-25.5,7.5-52.2,3.2-78.9-0.8
				c-1.7,2.4-3.2,4.9-4.7,7.6c-14.8,26.7-14,57.8-6.5,88.1c-0.3-0.9-0.6-1.9-0.8-2.8c0.8,2.7,1.6,5.3,2.5,7.9
				c82.1-35.3,162.6-74.6,242.9-113.8C424.8,997.7,443.2,988.7,461.4,979.5z"/>
			<path class="st26" d="M425.7,731.1c26.5,21.4,63.4,36.4,94.5,22.4c9.3-4.2,17.4-10.7,26.4-15.6c48-25.9,106.9,0.4,152.5,30.3
				c4.5,3,9.1,6,13.7,9c8.8-10.6,17.4-21.4,26-32.1c37.3-46.6,72.1-86,107.8-133.8c-7.9-1.7-13.9-3.5-21.7-6.3
				c-90.3-32-148.8-140.8-243.4-155.7c-54.7-8.6-110,14.5-154.5,47.4c-52.1,38.6-93.3,91.5-118.9,151c14.3,3.1,28.1,8.4,40.6,16.1
				C377.8,681.7,399.2,709.6,425.7,731.1z"/>
			<path class="st3" d="M168.3,1027.3c1.4-2.6,3-5.1,4.7-7.6c26.7,4,53.4,8.3,78.9,0.8c46.5-13.7,78.9-64.1,127.3-66.7
				c27.9-1.5,55.5,13.4,82.2,25.6c46.9-23.9,92.8-49.8,134-82.5c43.9-34.8,81.7-76.5,117.4-119.8c-4.6-3-9.2-6.1-13.7-9
				c-45.6-29.9-104.5-56.3-152.5-30.3c-9,4.9-17.1,11.4-26.4,15.6c-31.1,14-67.9-1-94.5-22.4c-26.5-21.4-47.9-49.3-76.9-67.1
				c-12.5-7.7-26.3-13-40.6-16.1c0,0,0,0,0,0c-3.3,7.6-6.3,15.3-9,23.1c-0.2,0.6-0.4,1.1-0.6,1.7c-0.8,2.2-1.5,4.4-2.2,6.6
				c-0.3,0.9-0.6,1.9-0.9,2.8c-0.4,1.2-0.8,2.4-1.1,3.6c-0.6,1.9-1.1,3.7-1.7,5.6c-0.3,0.9-0.5,1.9-0.8,2.8
				c-0.5,1.7-0.9,3.4-1.4,5.1c-0.2,0.7-0.4,1.5-0.6,2.2c-0.6,2.2-1.1,4.3-1.6,6.5c-0.1,0.6-0.3,1.3-0.4,1.9
				c-0.5,2.4-1.1,4.7-1.6,7.1c-0.1,0.5-0.2,1-0.3,1.5c-0.5,2.5-1,5.1-1.5,7.6c-13.8,76.1-6,162.7-56.3,221.5
				c-20.1,23.5-48.2,40.3-63.2,67.4c-0.6,1.1-1.2,2.3-1.8,3.4c-0.2,0.3-0.3,0.7-0.5,1c-0.4,0.8-0.8,1.7-1.2,2.5
				c-0.2,0.4-0.3,0.7-0.5,1.1c-0.4,1-0.9,2.1-1.3,3.1c0,0.1-0.1,0.3-0.2,0.4c-0.4,1.2-0.9,2.3-1.2,3.5c-0.1,0.4-0.2,0.7-0.3,1.1
				c-0.3,0.9-0.5,1.7-0.8,2.6c-0.1,0.4-0.2,0.8-0.3,1.2c-0.3,1-0.5,1.9-0.7,2.9c-0.1,0.2-0.1,0.5-0.2,0.7c-0.3,1.2-0.5,2.4-0.8,3.6
				c-0.1,0.4-0.1,0.8-0.2,1.2c-0.2,0.9-0.3,1.7-0.4,2.6c-0.1,0.4-0.1,0.9-0.2,1.3c-0.1,0.9-0.2,1.8-0.3,2.7c0,0.4-0.1,0.7-0.1,1.1
				c-0.1,1.2-0.2,2.4-0.3,3.6c0,0.4-0.1,0.9-0.1,1.3c-0.1,0.8-0.1,1.6-0.1,2.4c0,0.5,0,1-0.1,1.5c0,0.8,0,1.6,0,2.4c0,0.5,0,1,0,1.4
				c0,1.2,0,2.3,0.1,3.5c0,0.5,0,1.1,0.1,1.6c0,0.7,0.1,1.5,0.1,2.2c0,0.6,0.1,1.2,0.1,1.8c0,0.7,0.1,1.3,0.2,2
				c0,0.6,0.1,1.2,0.2,1.8c0.1,0.9,0.2,1.7,0.3,2.6c0.1,0.9,0.2,1.8,0.3,2.7c0.1,0.6,0.2,1.2,0.2,1.8c0.1,0.7,0.2,1.4,0.3,2.1
				c0.1,0.5,0.2,1.1,0.3,1.6c0.1,0.7,0.2,1.5,0.4,2.2c0.1,0.4,0.1,0.8,0.2,1.2c0.3,1.5,0.6,3,0.9,4.5c0.1,0.4,0.2,0.8,0.2,1.1
				c0.2,0.8,0.4,1.6,0.5,2.4c0.1,0.4,0.2,0.8,0.3,1.2c0.2,0.8,0.4,1.7,0.6,2.5c0,0.1,0.1,0.3,0.1,0.4c0.5,1.9,1,3.9,1.5,5.8
				c0,0.1,0.1,0.2,0.1,0.3c0.3,0.9,0.5,1.9,0.8,2.8c0.1,0.2,0.1,0.5,0.2,0.7c0.3,0.9,0.6,1.9,0.8,2.8
				C154.4,1085.2,153.5,1054,168.3,1027.3z"/>
			<circle class="st24" cx="1021.8" cy="783.8" r="72.8"/>
		</g>
		<g>
			<path class="st4" d="M1315.7,545.8c-0.2-3.1-5-3.1-4.8,0c1.4,27.2,2.8,54.4,4.2,81.6c0.2,3.1,5,3.1,4.8,0
				C1318.4,600.2,1317.1,573,1315.7,545.8z"/>
			<path class="st4" d="M1287.5,641c-6.9-19.8-14.3-39.4-22.3-58.9c-1.2-2.8-5.8-1.6-4.6,1.3c7.9,19.4,15.4,39.1,22.3,58.9
				C1283.9,645.2,1288.5,643.9,1287.5,641z"/>
			<path class="st4" d="M1414,606.3c-17.2,9.9-34.5,19.8-51.7,29.8c-2.7,1.5-0.3,5.7,2.4,4.2c17.2-9.9,34.5-19.8,51.7-29.8
				C1419.1,609,1416.7,604.8,1414,606.3z"/>
			<path class="st4" d="M1256.9,668.3c-8-6.6-15-14.1-20.9-22.6c-1.8-2.5-5.9-0.1-4.2,2.4c6.2,8.8,13.4,16.7,21.7,23.6
				C1255.9,673.7,1259.3,670.3,1256.9,668.3z"/>
			<path class="st4" d="M1440.3,657.3c-15.4,7.4-31.2,13.8-47.3,19.3c-2.9,1-1.7,5.6,1.3,4.6c16.5-5.6,32.7-12.2,48.5-19.8
				C1445.5,660.1,1443.1,655.9,1440.3,657.3z"/>
		</g>
	</g>
</g>
</svg>
